<svg width="19" height="19" viewBox="0 0 19 19" fill="none" xmlns="http://www.w3.org/2000/svg">
<path d="M8.23735 5.09379H18.4062V3.90629L8.23735 3.90629C8.10567 3.39646 7.8083 2.94484 7.392 2.6224C6.9757 2.29997 6.46406 2.125 5.9375 2.125C5.41094 2.125 4.8993 2.29997 4.483 2.6224C4.0667 2.94484 3.76933 3.39646 3.63765 3.90629H0.59375V5.09379L3.63765 5.09379C3.76933 5.60362 4.0667 6.05525 4.483 6.37768C4.8993 6.70012 5.41094 6.87508 5.9375 6.87508C6.46406 6.87508 6.9757 6.70012 7.392 6.37768C7.8083 6.05525 8.10567 5.60362 8.23735 5.09379ZM4.75 4.50004C4.75 4.26518 4.81965 4.03559 4.95013 3.8403C5.08061 3.64502 5.26608 3.49281 5.48306 3.40294C5.70005 3.31306 5.93882 3.28954 6.16917 3.33536C6.39952 3.38118 6.61111 3.49428 6.77719 3.66035C6.94326 3.82643 7.05636 4.03802 7.10218 4.26837C7.148 4.49873 7.12449 4.73749 7.03461 4.95448C6.94473 5.17147 6.79252 5.35693 6.59724 5.48741C6.40196 5.6179 6.17237 5.68754 5.9375 5.68754C5.62266 5.68719 5.32082 5.56196 5.0982 5.33934C4.87558 5.11672 4.75035 4.81488 4.75 4.50004Z" fill="white"/>
<path d="M15.9561 16.625H18.4062V15.4375H15.9561C15.8244 14.9277 15.5271 14.4761 15.1108 14.1537C14.6945 13.8312 14.1828 13.6562 13.6562 13.6562C13.1297 13.6562 12.618 13.8312 12.2017 14.1537C11.7854 14.4761 11.4881 14.9277 11.3564 15.4375L0.59375 15.4375V16.625H11.3564C11.4881 17.1349 11.7854 17.5865 12.2017 17.9089C12.618 18.2314 13.1297 18.4063 13.6562 18.4063C14.1828 18.4063 14.6945 18.2314 15.1108 17.9089C15.5271 17.5865 15.8244 17.1349 15.9561 16.625ZM12.4688 16.0313C12.4688 15.7964 12.5384 15.5668 12.6689 15.3716C12.7994 15.1763 12.9848 15.0241 13.2018 14.9342C13.4188 14.8443 13.6576 14.8208 13.8879 14.8666C14.1183 14.9124 14.3299 15.0255 14.4959 15.1916C14.662 15.3577 14.7751 15.5693 14.8209 15.7996C14.8668 16.03 14.8432 16.2687 14.7534 16.4857C14.6635 16.7027 14.5113 16.8882 14.316 17.0187C14.1207 17.1491 13.8911 17.2188 13.6562 17.2188C13.3414 17.2184 13.0396 17.0932 12.817 16.8706C12.5943 16.648 12.4691 16.3461 12.4688 16.0313Z" fill="white"/>
</svg>
