<svg width="10" height="8" viewBox="0 0 10 8" fill="none" xmlns="http://www.w3.org/2000/svg">
<path d="M3.33333 3.99996C3.77536 3.99996 4.19928 3.82436 4.51184 3.5118C4.82441 3.19924 5 2.77532 5 2.33329C5 1.89127 4.82441 1.46734 4.51184 1.15478C4.19928 0.842221 3.77536 0.666626 3.33333 0.666626C2.89131 0.666626 2.46738 0.842221 2.15482 1.15478C1.84226 1.46734 1.66667 1.89127 1.66667 2.33329C1.66667 2.77532 1.84226 3.19924 2.15482 3.5118C2.46738 3.82436 2.89131 3.99996 3.33333 3.99996V3.99996ZM7.08333 3.99996C7.41485 3.99996 7.7328 3.86826 7.96722 3.63384C8.20164 3.39942 8.33333 3.08148 8.33333 2.74996C8.33333 2.41844 8.20164 2.1005 7.96722 1.86608C7.7328 1.63166 7.41485 1.49996 7.08333 1.49996C6.75181 1.49996 6.43387 1.63166 6.19945 1.86608C5.96503 2.1005 5.83333 2.41844 5.83333 2.74996C5.83333 3.08148 5.96503 3.39942 6.19945 3.63384C6.43387 3.86826 6.75181 3.99996 7.08333 3.99996ZM1.40625 4.62496C1.19905 4.62496 1.00034 4.70727 0.853823 4.85378C0.70731 5.00029 0.625 5.19901 0.625 5.40621V5.66663C0.625 5.66663 0.625 7.54163 3.33333 7.54163C6.04167 7.54163 6.04167 5.66663 6.04167 5.66663V5.40621C6.04167 5.19901 5.95936 5.00029 5.81284 4.85378C5.66633 4.70727 5.46762 4.62496 5.26042 4.62496H1.40625ZM5.97375 6.93517C6.26042 7.05142 6.62354 7.12496 7.08312 7.12496C9.27062 7.12496 9.27062 5.45829 9.27062 5.45829V5.40621C9.27062 5.19904 9.18834 5.00036 9.04188 4.85386C8.89541 4.70735 8.69675 4.62501 8.48958 4.62496H6.16812C6.35546 4.8421 6.45833 5.11943 6.45792 5.40621V5.676L6.45771 5.68788C6.45648 5.72832 6.45371 5.76869 6.44938 5.80892C6.43905 5.90191 6.42227 5.99408 6.39917 6.08475C6.32027 6.39556 6.17516 6.68565 5.97375 6.93517V6.93517Z" fill="#B6B6B6"/>
</svg>
