<svg width="20" height="20" viewBox="0 0 20 20" fill="none" xmlns="http://www.w3.org/2000/svg">
<path d="M14.8438 8.53127C14.8438 8.53127 13.4376 7.37502 12.6876 6.25002C12.4063 5.84377 11.5001 5.90627 11.1876 6.68752L6.31256 8.56252L3.09381 6.84377C2.59381 6.53127 1.93756 6.75002 1.65631 7.34377C1.37506 7.90627 1.53131 8.62502 2.06256 8.93752L2.56256 9.21877C2.12506 9.15627 1.65631 9.37502 1.43756 9.81252C1.15631 10.375 1.31256 11.0938 1.84381 11.4063L2.96881 12.0625C2.46881 11.75 1.81256 11.9688 1.53131 12.5625C1.25006 13.125 1.40631 13.8438 1.93756 14.1563C1.93756 14.1563 7.59381 17.6563 9.53131 18.6875C11.0626 19.5313 14.0938 19.9375 16.0001 17.625C16.6251 16.8125 14.8438 8.53127 14.8438 8.53127Z" fill="#D99B57"/>
<path d="M17.1876 8.53133C16.1876 7.84383 15.5001 6.93758 15.0001 5.56258C14.8126 5.09383 14.1251 5.00008 13.7188 5.78133C13.1251 6.90633 13.6876 7.81258 14.0001 8.21883L14.1563 8.40633C14.1563 8.40633 14.2501 8.75008 14.4063 9.15633C13.5626 8.96883 12.6251 9.43758 11.9688 10.3126C11.2813 11.2188 9.65632 12.7813 8.96882 13.6876C8.12507 14.7813 8.34382 16.3438 9.28132 17.0313C9.28132 17.0313 14.1876 20.6251 17.4376 16.2188C20.0001 12.7813 18.1876 9.21883 17.1876 8.53133Z" fill="#FFDD67"/>
<path d="M15.5315 9.8438C16.0315 10.2188 16.1565 10.9376 15.7815 11.5001C15.4378 12.0626 14.719 12.2188 14.219 11.8438L6.43777 6.25005C5.93777 5.87505 5.81277 5.1563 6.18777 4.5938C6.53152 4.0313 7.25027 3.87505 7.75027 4.25005L15.5315 9.8438Z" fill="#FFDD67"/>
<path d="M11.5004 9.21875L6.53165 5.625C6.2504 5.4375 6.0629 5.125 6.15665 4.65625C5.8129 5.28125 6.03165 5.90625 6.4379 6.21875L11.4067 9.8125C11.9067 10.1875 12.0004 9.59375 11.5004 9.21875Z" fill="#EBA352"/>
<path d="M13.0003 10.9376C13.5003 11.3126 13.6253 12.0313 13.2503 12.5938C12.9065 13.1563 12.1878 13.3126 11.6878 12.9376L3.90652 7.31255C3.40652 6.93755 3.28152 6.2188 3.65652 5.6563C4.00027 5.0938 4.71902 4.93755 5.21902 5.31255L13.0003 10.9376Z" fill="#FFDD67"/>
<path d="M10.0001 11.0625L4.0001 6.71875C3.71885 6.53125 3.53135 6.15625 3.6251 5.75C3.28135 6.375 3.46885 7.0625 3.90635 7.375L9.9376 11.6562C10.4063 12.0312 10.5001 11.4063 10.0001 11.0625Z" fill="#EBA352"/>
<path d="M12.5003 13.4376C13.0003 13.8126 13.1253 14.5313 12.7503 15.0938C12.4065 15.6563 11.6878 15.8126 11.1878 15.4376L3.40652 9.81255C2.90652 9.43755 2.78152 8.7188 3.15652 8.1563C3.50027 7.5938 4.21902 7.43755 4.71902 7.81255L12.5003 13.4376Z" fill="#FFDD67"/>
<path d="M8.81265 13.0625L3.50015 9.25C3.2189 9.0625 3.0314 8.625 3.1564 8.1875C2.75015 8.78125 2.9064 9.5625 3.3439 9.875L8.7189 13.6562C9.2189 14.0312 9.31265 13.4375 8.81265 13.0625Z" fill="#EBA352"/>
<path d="M12.2815 16.2501C12.7815 16.6251 9.21902 17.0001 8.71902 16.6251L3.21902 12.6563C2.71902 12.2813 2.59402 11.5626 2.96902 11.0001C3.31277 10.4376 4.03152 10.2813 4.53152 10.6563L12.2815 16.2501Z" fill="#FFDD67"/>
<path d="M18.7185 13C18.7185 13 18.1872 15.75 15.9997 17.4062C14.0622 18.875 11.0622 17.5938 9.62472 16.6562C8.12472 15.625 7.37472 15.125 3.74972 12.375C3.06222 11.8437 2.87472 11.5 2.96847 10.9375C2.43722 11.5 2.71847 12.375 3.15597 12.6875L3.53097 12.9375C3.53097 12.9375 7.87472 16.125 9.34347 17.125C10.6872 18.0625 14.156 19.5313 16.3435 17.7813C18.8122 15.875 18.7185 13 18.7185 13ZM14.9997 9.40625C14.3747 8.75 14.3435 7.8125 14.3435 7.8125L14.1872 7.625C13.9372 7.3125 13.531 6.65625 13.6872 5.875C13.0935 6.96875 13.6872 7.84375 13.9685 8.21875L14.1247 8.40625C14.1247 8.40625 14.0935 8.6875 14.2497 8.90625L14.9997 9.40625Z" fill="#EBA352"/>
<path d="M11.8125 0.625L12.75 4.4375L14.5938 0.90625L11.8125 0.625ZM16.4375 1.75L15.0312 4.90625L18.3125 4.0625L16.4375 1.75ZM9.4375 1.09375L10.3125 4.53125L7.4375 2.6875L9.4375 1.09375Z" fill="#42ADE2"/>
</svg>
