<svg width="18" height="18" viewBox="0 0 18 18" fill="none" xmlns="http://www.w3.org/2000/svg">
<path d="M16.2725 3.34828H9.50224L8.48865 0.25302C8.43922 0.102094 8.29835 0 8.13952 0H1.72747C0.774949 0 0 0.774949 0 1.72751V12.924C0 13.8766 0.774949 14.6515 1.72747 14.6515H8.48152L9.51198 17.7486C9.5619 17.8987 9.70235 18 9.86052 18H16.2725C17.225 18 18 17.225 18 16.2725V5.07586C18 4.1233 17.2251 3.34828 16.2725 3.34828ZM1.72747 13.9168C1.18005 13.9168 0.734695 13.4715 0.734695 12.924V1.72751C0.734695 1.18009 1.18005 0.734695 1.72747 0.734695H7.87328L12.1899 13.9169H1.72747V13.9168ZM12.3208 10.0735C12.478 10.314 12.6672 10.581 12.8905 10.8632C12.6815 11.0989 12.4504 11.3375 12.1959 11.5742L11.1845 8.4857H11.4754C11.6026 8.80017 11.8662 9.37849 12.3208 10.0735ZM12.2763 8.4857H14.4618C14.2695 8.90434 13.9236 9.55684 13.3691 10.2821C13.2094 10.0737 13.0701 9.87588 12.9508 9.69444C12.6334 9.21203 12.4151 8.78825 12.2763 8.4857ZM9.25587 14.6515H11.9041L10.0027 16.8963L9.25587 14.6515ZM16.2725 17.2653H10.653L12.9708 14.529C13.029 14.4639 13.0648 14.3783 13.0648 14.2842C13.0648 14.2358 13.0554 14.1895 13.0384 14.1471L12.446 12.3381C12.79 12.0371 13.0973 11.7315 13.3707 11.4296C13.9874 12.1105 14.794 12.8333 15.8245 13.4644C15.8844 13.501 15.9506 13.5185 16.016 13.5185C16.1396 13.5185 16.2604 13.4561 16.3296 13.3429C16.4355 13.1699 16.3812 12.9437 16.2081 12.8378C15.2072 12.2249 14.433 11.5197 13.8498 10.8637C14.6654 9.83215 15.0903 8.91503 15.2631 8.48573H16.3469C16.5498 8.48573 16.7143 8.32127 16.7143 8.11839C16.7143 7.9155 16.5498 7.75104 16.3469 7.75104H13.7135V7.12652C13.7135 6.92364 13.549 6.75918 13.3461 6.75918C13.1433 6.75918 12.9788 6.92364 12.9788 7.12652V7.751H10.9439L9.74275 4.08298H16.2725C16.8199 4.08298 17.2652 4.52837 17.2652 5.07579V16.2725H17.2653C17.2653 16.8199 16.8199 17.2653 16.2725 17.2653Z" fill="white"/>
</svg>
