<svg width="18" height="14" viewBox="0 0 18 14" fill="none" xmlns="http://www.w3.org/2000/svg">
<path d="M4.28594 1.24161C4.36342 1.32139 4.42489 1.41612 4.46683 1.5204C4.50876 1.62468 4.53035 1.73645 4.53035 1.84934C4.53035 1.96222 4.50876 2.07399 4.46683 2.17827C4.42489 2.28255 4.36342 2.37728 4.28594 2.45706C3.03548 3.74622 2.33299 5.49457 2.33299 7.31757C2.33299 9.14056 3.03548 10.8889 4.28594 12.1781C4.36331 12.2579 4.42468 12.3526 4.46653 12.4569C4.50838 12.5611 4.5299 12.6728 4.52986 12.7857C4.52982 12.8985 4.50823 13.0102 4.4663 13.1144C4.42438 13.2187 4.36295 13.3133 4.28553 13.3931C4.2081 13.4728 4.1162 13.5361 4.01506 13.5792C3.91392 13.6224 3.80552 13.6446 3.69607 13.6445C3.58661 13.6445 3.47823 13.6222 3.37712 13.579C3.27601 13.5358 3.18415 13.4725 3.10678 13.3927C-0.148223 10.0375 -0.148223 4.59677 3.10678 1.24161C3.18417 1.16175 3.27608 1.09839 3.37724 1.05516C3.47841 1.01193 3.58685 0.989685 3.69636 0.989685C3.80587 0.989685 3.91431 1.01193 4.01548 1.05516C4.11664 1.09839 4.20855 1.16175 4.28594 1.24161ZM14.8951 1.24161C18.1501 4.59762 18.1501 10.0375 14.8951 13.3927C14.7379 13.5491 14.5274 13.6357 14.3089 13.6338C14.0904 13.6318 13.8814 13.5415 13.7269 13.3822C13.5724 13.2229 13.4848 13.0075 13.4829 12.7823C13.481 12.5571 13.565 12.3401 13.7168 12.1781C14.9672 10.8889 15.6697 9.14056 15.6697 7.31757C15.6697 5.49457 14.9672 3.74622 13.7168 2.45706C13.5604 2.296 13.4725 2.0775 13.4724 1.84964C13.4724 1.62178 13.5601 1.40322 13.7164 1.24204C13.8726 1.08086 14.0846 0.990267 14.3056 0.990187C14.5267 0.990106 14.7387 1.08055 14.8951 1.24161ZM6.75844 3.7103C6.91467 3.87138 7.00243 4.08983 7.00243 4.3176C7.00243 4.54537 6.91467 4.76381 6.75844 4.92489C6.45507 5.23757 6.21442 5.60878 6.05023 6.01733C5.88605 6.42587 5.80154 6.86376 5.80154 7.30597C5.80154 7.74818 5.88605 8.18607 6.05023 8.59461C6.21442 9.00316 6.45507 9.37437 6.75844 9.68705C6.83804 9.76629 6.90152 9.86107 6.9452 9.96587C6.98887 10.0707 7.01186 10.1834 7.01282 10.2974C7.01378 10.4115 6.9927 10.5246 6.9508 10.6302C6.9089 10.7357 6.84702 10.8316 6.76877 10.9123C6.69053 10.9929 6.59749 11.0567 6.49507 11.0999C6.39266 11.1431 6.28293 11.1648 6.17228 11.1638C6.06163 11.1628 5.95228 11.1392 5.85061 11.0941C5.74894 11.0491 5.65698 10.9837 5.58011 10.9016C4.65497 9.948 4.13523 8.6546 4.13523 7.30597C4.13523 5.95734 4.65497 4.66394 5.58011 3.7103C5.73638 3.54927 5.94831 3.45881 6.16928 3.45881C6.39025 3.45881 6.60217 3.54927 6.75844 3.7103ZM12.5576 3.7103C13.4828 4.66394 14.0025 5.95734 14.0025 7.30597C14.0025 8.6546 13.4828 9.948 12.5576 10.9016C12.4802 10.9814 12.3884 11.0448 12.2873 11.088C12.1862 11.1312 12.0778 11.1535 11.9683 11.1535C11.8589 11.1535 11.7505 11.1313 11.6493 11.0882C11.5482 11.0451 11.4563 10.9818 11.3789 10.9021C11.3014 10.8223 11.24 10.7276 11.1981 10.6234C11.1562 10.5192 11.1346 10.4075 11.1345 10.2946C11.1345 10.1818 11.156 10.0701 11.1979 9.96584C11.2397 9.86159 11.3011 9.76686 11.3784 9.68705C11.6818 9.37437 11.9225 9.00316 12.0867 8.59461C12.2508 8.18607 12.3353 7.74818 12.3353 7.30597C12.3353 6.86376 12.2508 6.42587 12.0867 6.01733C11.9225 5.60878 11.6818 5.23757 11.3784 4.92489C11.2222 4.76371 11.1344 4.54515 11.1345 4.31729C11.1346 4.08943 11.2225 3.87094 11.3789 3.70987C11.5352 3.54881 11.7473 3.45837 11.9683 3.45845C12.1894 3.45853 12.4014 3.54912 12.5576 3.7103ZM9.06844 6.08966C9.2326 6.08966 9.39514 6.12299 9.5468 6.18774C9.69846 6.25249 9.83626 6.3474 9.95233 6.46704C10.0684 6.58669 10.1605 6.72873 10.2233 6.88505C10.2861 7.04137 10.3184 7.20892 10.3184 7.37812C10.3184 7.54733 10.2861 7.71487 10.2233 7.8712C10.1605 8.02752 10.0684 8.16956 9.95233 8.2892C9.83626 8.40885 9.69846 8.50376 9.5468 8.56851C9.39514 8.63326 9.2326 8.66659 9.06844 8.66659C8.73692 8.66659 8.41898 8.53084 8.18456 8.2892C7.95014 8.04757 7.81844 7.71985 7.81844 7.37812C7.81844 7.0364 7.95014 6.70868 8.18456 6.46704C8.41898 6.22541 8.73692 6.08966 9.06844 6.08966Z" fill="#F8F8F8"/>
</svg>
