<svg width="21" height="21" viewBox="0 0 21 21" fill="none" xmlns="http://www.w3.org/2000/svg">
<path d="M10.5 0C6.2213 0 2.74023 3.481 2.74023 7.7598C2.74023 11.9023 9.81443 20.4575 10.1156 20.8197C10.2106 20.9339 10.3514 21 10.5 21C10.6486 21 10.7895 20.9339 10.8845 20.8197C11.1857 20.4575 18.2598 11.9023 18.2598 7.7598C18.2598 3.481 14.7788 0 10.5 0ZM10.5 19.7065C9.87277 18.9233 8.5695 17.2545 7.27983 15.3467C4.96423 11.9215 3.74023 9.29793 3.74023 7.7598C3.74023 4.0324 6.7727 1 10.5 1C14.2274 1 17.2598 4.0324 17.2598 7.7598C17.2598 9.29787 16.0359 11.9214 13.7202 15.3467C12.4305 17.2545 11.1273 18.9233 10.5 19.7065Z" fill="white"/>
<path d="M13.0438 14.2637C12.815 14.1091 12.5042 14.1694 12.3496 14.3982C11.6749 15.397 10.919 16.4438 10.103 17.5095C9.93517 17.7288 9.97678 18.0426 10.196 18.2104C10.2867 18.2799 10.3936 18.3135 10.4996 18.3135C10.6499 18.3135 10.7986 18.246 10.897 18.1174C11.725 17.0361 12.4925 15.9731 13.1782 14.958C13.3328 14.7292 13.2727 14.4183 13.0438 14.2637Z" fill="white"/>
<path d="M10.5004 3.83337C8.23966 3.83337 6.40039 5.67264 6.40039 7.93337C6.40039 10.1941 8.23966 12.0334 10.5004 12.0334C12.7611 12.0334 14.6004 10.1941 14.6004 7.93337C14.6004 5.67264 12.7611 3.83337 10.5004 3.83337ZM10.5004 11.0334C8.79106 11.0334 7.40039 9.64271 7.40039 7.93337C7.40039 6.22404 8.79106 4.83337 10.5004 4.83337C12.2098 4.83337 13.6004 6.22404 13.6004 7.93337C13.6004 9.64271 12.2098 11.0334 10.5004 11.0334Z" fill="white"/>
</svg>
