<svg width="24" height="24" viewBox="0 0 24 24" fill="none" xmlns="http://www.w3.org/2000/svg">
<g clip-path="url(#clip0_2698_3380)">
<path d="M19.8 2H17.2C14 2 12 4 12 7.2V11.25H18.25C18.66 11.25 19 11.59 19 12C19 12.41 18.66 12.75 18.25 12.75H12V16.8C12 20 14 22 17.2 22H19.79C22.99 22 24.99 20 24.99 16.8V7.2C25 4 23 2 19.8 2Z" fill="black"/>
<path d="M7.56141 11.25L9.63141 9.18005C9.78141 9.03005 9.85141 8.84004 9.85141 8.65004C9.85141 8.46004 9.78141 8.26005 9.63141 8.12005C9.49027 7.98056 9.29984 7.90234 9.10141 7.90234C8.90298 7.90234 8.71254 7.98056 8.57141 8.12005L5.22141 11.47C4.93141 11.76 4.93141 12.24 5.22141 12.53L8.57141 15.88C8.86141 16.17 9.34141 16.17 9.63141 15.88C9.92141 15.59 9.92141 15.11 9.63141 14.82L7.56141 12.75H12.0014V11.25H7.56141Z" fill="black"/>
</g>
<defs>
<clipPath id="clip0_2698_3380">
<rect width="24" height="24" fill="white"/>
</clipPath>
</defs>
</svg>
