<svg width="96" height="65" viewBox="0 0 96 65" fill="none" xmlns="http://www.w3.org/2000/svg">
<path d="M74.3576 49.5284H68.6365V44.3714H77.0973C78.5213 44.3714 79.5952 43.3135 79.5952 41.8896V40.9958C79.5952 24.244 66.7026 10.4534 50.2645 9.04588V5.6938C51.8761 5.6938 52.8968 4.53926 52.8968 3.11527C52.8968 1.69128 51.7961 0.536743 50.3721 0.536743H45.2151C43.7911 0.536743 42.5827 1.69128 42.5827 3.11527C42.5827 4.53926 43.8182 5.6938 45.1074 5.6938V9.01462C28.6693 10.2417 15.4544 24.1164 15.4544 40.9961V41.8899C15.4544 43.3139 16.6895 44.3717 18.1135 44.3717H26.0908V49.5288H21.1755C17.1768 49.5288 13.8428 52.6736 13.8428 56.6723V62.3128C13.8428 63.7368 15.0779 64.9999 16.5019 64.9999H79.0312C80.4552 64.9999 81.5291 63.7368 81.5291 62.3128V56.6723C81.5291 52.6733 78.3563 49.5284 74.3576 49.5284ZM44.7609 18.6612C46.1749 18.4775 47.4668 19.4751 47.6495 20.8868C47.8326 22.2992 46.8363 23.5926 45.4239 23.7754C39.9491 24.4848 34.92 27.9217 32.2992 32.7451C31.8319 33.6054 30.9461 34.0934 30.0314 34.0934C29.6156 34.0934 29.1937 33.9922 28.8024 33.7798C27.5512 33.1 27.088 31.5345 27.7678 30.283C31.1637 24.0326 37.6751 19.5795 44.7609 18.6612ZM31.2478 44.3714H63.4794V49.5284H31.2478V44.3714Z" fill="url(#paint0_linear_780_2687)"/>
<path d="M19.8034 8.31176C20.3133 8.91965 21.044 9.23262 21.7799 9.23262C22.3649 9.23262 22.9531 9.03472 23.4362 8.62924C24.5273 7.71387 24.6694 6.08746 23.7537 4.99642L20.4387 1.04612C19.5233 -0.0449227 17.8972 -0.187064 16.8059 0.728635C15.7148 1.64401 15.5727 3.27042 16.4884 4.36146L19.8034 8.31176Z" fill="url(#paint1_linear_780_2687)"/>
<path d="M14.7827 19.0007C15.4947 17.7675 15.0718 16.1901 13.8386 15.4781L9.37228 12.8995C8.1391 12.1879 6.562 12.6101 5.84968 13.8436C5.13769 15.0768 5.56057 16.6542 6.79375 17.3662L11.2601 19.9447C11.6662 20.179 12.1094 20.2902 12.5468 20.2902C13.438 20.2902 14.305 19.8277 14.7827 19.0007Z" fill="url(#paint2_linear_780_2687)"/>
<path d="M8.10586 28.7188L3.0268 27.8234C1.62795 27.5781 0.287116 28.5125 0.0395769 29.9152C-0.20764 31.3176 0.729011 32.6549 2.13141 32.9024L7.21046 33.7978C7.36195 33.8243 7.51247 33.8372 7.66106 33.8372C8.88876 33.8372 9.9769 32.9572 10.1974 31.706C10.4449 30.3036 9.50858 28.9663 8.10586 28.7188Z" fill="url(#paint3_linear_780_2687)"/>
<path d="M95.5454 29.6168C95.2978 28.2141 93.9625 27.2819 92.5581 27.525L87.4791 28.42C86.0764 28.6676 85.14 30.0045 85.3872 31.4073C85.608 32.6585 86.6959 33.5384 87.9236 33.5384C88.0721 33.5384 88.223 33.5255 88.3741 33.4991L93.4532 32.604C94.8562 32.3565 95.7926 31.0195 95.5454 29.6168Z" fill="url(#paint4_linear_780_2687)"/>
<path d="M89.644 13.6189C88.9323 12.3854 87.3543 11.9625 86.1217 12.6745L81.6554 15.2527C80.4219 15.9647 79.999 17.5418 80.711 18.775C81.1887 19.6024 82.0554 20.0649 82.9466 20.0649C83.384 20.0649 83.8275 19.9534 84.233 19.7194L88.6996 17.1412C89.9331 16.4288 90.356 14.8521 89.644 13.6189Z" fill="url(#paint5_linear_780_2687)"/>
<path d="M71.9953 8.50411C72.4784 8.90959 73.0663 9.10749 73.6516 9.10749C74.3872 9.10749 75.1182 8.7942 75.6281 8.18663L78.9431 4.23633C79.8585 3.14529 79.7163 1.51888 78.6256 0.603503C77.5346 -0.311875 75.9082 -0.170056 74.9928 0.920984L71.6775 4.87161C70.7624 5.96265 70.9042 7.58906 71.9953 8.50411Z" fill="url(#paint6_linear_780_2687)"/>
<defs>
<linearGradient id="paint0_linear_780_2687" x1="47.686" y1="0.536743" x2="47.686" y2="64.9999" gradientUnits="userSpaceOnUse">
<stop stop-color="#F915DE"/>
<stop offset="1" stop-color="#F5A56B" stop-opacity="0.83"/>
</linearGradient>
<linearGradient id="paint1_linear_780_2687" x1="20.1211" y1="0.125" x2="20.1211" y2="9.23262" gradientUnits="userSpaceOnUse">
<stop stop-color="#F915DE"/>
<stop offset="1" stop-color="#F5A56B" stop-opacity="0.83"/>
</linearGradient>
<linearGradient id="paint2_linear_780_2687" x1="10.3162" y1="12.5538" x2="10.3162" y2="20.2902" gradientUnits="userSpaceOnUse">
<stop stop-color="#F915DE"/>
<stop offset="1" stop-color="#F5A56B" stop-opacity="0.83"/>
</linearGradient>
<linearGradient id="paint3_linear_780_2687" x1="5.11852" y1="27.7843" x2="5.11852" y2="33.8372" gradientUnits="userSpaceOnUse">
<stop stop-color="#F915DE"/>
<stop offset="1" stop-color="#F5A56B" stop-opacity="0.83"/>
</linearGradient>
<linearGradient id="paint4_linear_780_2687" x1="90.4663" y1="27.4865" x2="90.4663" y2="33.5384" gradientUnits="userSpaceOnUse">
<stop stop-color="#F915DE"/>
<stop offset="1" stop-color="#F5A56B" stop-opacity="0.83"/>
</linearGradient>
<linearGradient id="paint5_linear_780_2687" x1="85.1775" y1="12.3287" x2="85.1775" y2="20.0649" gradientUnits="userSpaceOnUse">
<stop stop-color="#F915DE"/>
<stop offset="1" stop-color="#F5A56B" stop-opacity="0.83"/>
</linearGradient>
<linearGradient id="paint6_linear_780_2687" x1="75.3104" y1="0" x2="75.3104" y2="9.10749" gradientUnits="userSpaceOnUse">
<stop stop-color="#F915DE"/>
<stop offset="1" stop-color="#F5A56B" stop-opacity="0.83"/>
</linearGradient>
</defs>
</svg>
