<svg width="20" height="20" viewBox="0 0 20 20" fill="none" xmlns="http://www.w3.org/2000/svg">
<path d="M7.08333 9.58333C7.41485 9.58333 7.7328 9.45164 7.96722 9.21722C8.20164 8.9828 8.33333 8.66485 8.33333 8.33333C8.33333 8.00181 8.20164 7.68387 7.96722 7.44945C7.7328 7.21503 7.41485 7.08333 7.08333 7.08333C6.75181 7.08333 6.43387 7.21503 6.19945 7.44945C5.96503 7.68387 5.83333 8.00181 5.83333 8.33333C5.83333 8.66485 5.96503 8.9828 6.19945 9.21722C6.43387 9.45164 6.75181 9.58333 7.08333 9.58333ZM6.89333 12.7783C6.82067 12.6956 6.73234 12.6282 6.63344 12.5798C6.53455 12.5314 6.42705 12.5031 6.31717 12.4966C6.20728 12.49 6.09718 12.5052 5.99322 12.5415C5.88926 12.5777 5.7935 12.6341 5.71149 12.7075C5.62947 12.781 5.56282 12.8699 5.51537 12.9693C5.46793 13.0686 5.44064 13.1764 5.43508 13.2863C5.42951 13.3962 5.44579 13.5062 5.48297 13.6098C5.52014 13.7134 5.57748 13.8087 5.65167 13.89C6.1985 14.5022 6.8686 14.9918 7.61801 15.3267C8.36741 15.6616 9.17916 15.8343 10 15.8333C10.8208 15.8343 11.6326 15.6616 12.382 15.3267C13.1314 14.9918 13.8015 14.5022 14.3483 13.89C14.4933 13.725 14.5673 13.5094 14.5542 13.2901C14.5411 13.0708 14.4419 12.8656 14.2782 12.7191C14.1145 12.5725 13.8996 12.4966 13.6802 12.5077C13.4608 12.5188 13.2547 12.616 13.1067 12.7783C12.7162 13.216 12.2375 13.566 11.702 13.8053C11.1666 14.0445 10.5865 14.1677 10 14.1667C8.76667 14.1667 7.65833 13.6317 6.89333 12.7783ZM14.1667 8.33333C14.1667 8.66485 14.035 8.9828 13.8005 9.21722C13.5661 9.45164 13.2482 9.58333 12.9167 9.58333C12.5851 9.58333 12.2672 9.45164 12.0328 9.21722C11.7984 8.9828 11.6667 8.66485 11.6667 8.33333C11.6667 8.00181 11.7984 7.68387 12.0328 7.44945C12.2672 7.21503 12.5851 7.08333 12.9167 7.08333C13.2482 7.08333 13.5661 7.21503 13.8005 7.44945C14.035 7.68387 14.1667 8.00181 14.1667 8.33333ZM20 10C20 8.68678 19.7413 7.38642 19.2388 6.17317C18.7362 4.95991 17.9997 3.85752 17.0711 2.92893C16.1425 2.00035 15.0401 1.26375 13.8268 0.761205C12.6136 0.258658 11.3132 0 10 0C8.68678 0 7.38642 0.258658 6.17317 0.761205C4.95991 1.26375 3.85752 2.00035 2.92893 2.92893C2.00035 3.85752 1.26375 4.95991 0.761205 6.17317C0.258658 7.38642 -1.95685e-08 8.68678 0 10C3.95203e-08 12.6522 1.05357 15.1957 2.92893 17.0711C4.8043 18.9464 7.34784 20 10 20C12.6522 20 15.1957 18.9464 17.0711 17.0711C18.9464 15.1957 20 12.6522 20 10ZM1.66667 10C1.66667 7.78986 2.54464 5.67025 4.10744 4.10744C5.67025 2.54464 7.78986 1.66667 10 1.66667C12.2101 1.66667 14.3298 2.54464 15.8926 4.10744C17.4554 5.67025 18.3333 7.78986 18.3333 10C18.3333 12.2101 17.4554 14.3298 15.8926 15.8926C14.3298 17.4554 12.2101 18.3333 10 18.3333C7.78986 18.3333 5.67025 17.4554 4.10744 15.8926C2.54464 14.3298 1.66667 12.2101 1.66667 10Z" fill="#F8F8F8"/>
</svg>
