<svg xmlns="http://www.w3.org/2000/svg" width="350" height="350" fill="none"><path fill="#EBEBEB" d="M252.783 333.158c-14.329-10.752-17.016-29.897-15.854-46.984.189-2.856 0-5.88 1.4-8.337s4.668-4.067 7.188-2.8c2.1 1.064 2.926 3.563 4.046 5.642a16.687 16.687 0 0 0 6.482 6.629c1.785 1.001 4.019 1.659 5.846.7 2.506-1.281 2.911-4.669 2.988-7.511l.441-15.89c.077-2.8.169-5.74 1.142-8.4.973-2.66 3.009-5.103 5.739-5.768s6.014 1.008 6.49 3.808c.203 1.162-.078 2.352-.036 3.535.042 1.183.546 2.506 1.653 2.87 1.106.364 2.288-.392 3.163-1.197 3.031-2.8 5.146-6.398 7.127-10.003 1.981-3.605 3.912-7.315 6.677-10.353 2.765-3.038 6.531-5.397 10.605-5.488 4.074-.091 8.323 2.562 9.219 6.594.896 4.032-1.575 8.022-4.2 11.2a63.36 63.36 0 0 1-13.629 12.138c-.917.602-1.911 1.26-2.282 2.296-.7 1.876 1.05 3.815 2.899 4.501 2.099.777 4.395.637 6.6.973 2.205.336 4.571 1.4 5.341 3.5 1.064 2.94-1.47 5.901-3.92 7.812a54.331 54.331 0 0 1-16.387 8.743c-2.1.7-4.34 1.288-6.076 2.702-1.736 1.414-2.8 3.927-1.883 5.964.917 2.037 3.543 2.765 5.741 2.429 2.198-.336 4.2-1.449 6.3-2.17 3.955-1.337 8.987-.903 11.375 2.555 1.568 2.275 1.61 5.369.7 7.98-.91 2.611-2.689 4.872-4.579 6.923-6.503 7.126-14.699 12.768-23.876 15.596-9.177 2.828-17.578 3.402-26.468-.189"/><path fill="#E0E0E0" d="M257.6 322.581a253.228 253.228 0 0 1 11.025-27.062c1.099-2.345 2.191-4.662 3.255-6.944s2.142-4.536 3.318-6.678a125.974 125.974 0 0 1 7.476-11.9c2.562-3.682 5.124-7.084 7.546-10.241 2.422-3.157 4.746-6.062 7-8.617a100.405 100.405 0 0 1 11.389-11.249c1.442-1.218 2.597-2.1 3.388-2.737l.896-.7c.099-.083.207-.156.322-.217a2.424 2.424 0 0 1-.287.259l-.868.7c-.77.63-1.897 1.568-3.318 2.8a105.837 105.837 0 0 0-11.242 11.347c-2.205 2.562-4.501 5.467-6.909 8.631-2.408 3.164-4.956 6.573-7.497 10.255-2.69 3.828-5.167 7.8-7.42 11.9-1.169 2.135-2.219 4.375-3.297 6.657-1.078 2.282-2.149 4.599-3.248 6.944a259.82 259.82 0 0 0-11.046 26.992"/><path fill="#E0E0E0" d="M275.317 281.876a5.063 5.063 0 0 1-.238-1.218 66.887 66.887 0 0 1-.413-3.36c-.308-2.842-.595-6.783-.903-11.123-.308-4.34-.644-8.274-.994-11.102-.168-1.4-.315-2.555-.434-3.346a5.727 5.727 0 0 1-.112-1.239c.149.388.255.792.315 1.204.175.777.378 1.918.595 3.332.448 2.8.854 6.762 1.155 11.109.301 4.347.546 8.169.742 11.13.098 1.337.182 2.464.252 3.374.056.411.067.826.035 1.239Z"/><path fill="#E0E0E0" d="M312.059 276.283a6.834 6.834 0 0 1-1.456.126c-.945.056-2.303.119-3.983.259-3.353.245-7.98.756-13.062 1.533a181.04 181.04 0 0 0-12.922 2.457c-1.645.364-2.968.7-3.885.917a7.475 7.475 0 0 1-1.435.301c.45-.21.919-.377 1.4-.497a49.83 49.83 0 0 1 3.85-1.085c3.276-.854 7.847-1.82 12.936-2.618a128.59 128.59 0 0 1 13.118-1.4c1.687-.091 3.052-.105 3.997-.091.483-.012.966.021 1.442.098ZM258.034 321.923a2.117 2.117 0 0 1-.231-.455c-.161-.364-.35-.805-.581-1.344-.497-1.162-1.176-2.877-1.988-4.998-1.617-4.242-3.675-10.171-5.852-16.751-2.177-6.58-4.2-12.516-5.705-16.8-.749-2.1-1.365-3.787-1.827-5.054l-.49-1.4a1.592 1.592 0 0 1-.133-.497c.092.143.17.296.231.455.161.364.35.805.581 1.344a159.856 159.856 0 0 1 1.988 4.998c1.617 4.242 3.675 10.171 5.852 16.751 2.177 6.58 4.2 12.523 5.705 16.8.749 2.1 1.365 3.78 1.827 5.047l.49 1.4c.07.16.115.33.133.504ZM307.09 307.923a2.17 2.17 0 0 1-.483.182l-1.4.42-5.25 1.512c-4.438 1.274-10.542 3.108-17.29 5.138-6.748 2.03-12.873 3.808-17.339 4.991a190.58 190.58 0 0 1-5.299 1.351l-1.449.329a1.72 1.72 0 0 1-.518.077c.155-.081.319-.142.49-.182l1.4-.427 5.25-1.505c4.438-1.274 10.542-3.108 17.29-5.138 6.748-2.03 12.873-3.815 17.339-4.998 2.226-.588 4.039-1.05 5.299-1.344l1.47-.329c.158-.05.323-.076.49-.077Z"/><path fill="#EBEBEB" d="M293.398 135.149c20.346 0 36.841-16.494 36.841-36.841s-16.495-36.841-36.841-36.841c-20.347 0-36.841 16.494-36.841 36.841s16.494 36.841 36.841 36.841Z"/><path fill="#fff" d="M291.732 64.274c0 .126-.812.168-2.233.273-2.004.152-3.992.47-5.943.952-1.337.34-2.652.755-3.941 1.246a32.973 32.973 0 0 0-4.263 2.037A29.693 29.693 0 0 0 261.8 84.987a33.767 33.767 0 0 0-1.26 4.557c-.26 1.353-.44 2.72-.539 4.095-.135 2.006-.1 4.02.105 6.02.14 1.4.238 2.219.119 2.247-.119.028-.413-.7-.756-2.149a25.782 25.782 0 0 1-.637-6.16c.02-1.437.139-2.87.357-4.291a32.13 32.13 0 0 1 1.169-4.816 29.449 29.449 0 0 1 14.28-17.045 32.57 32.57 0 0 1 4.536-1.988 30.983 30.983 0 0 1 4.158-1.099c2.034-.4 4.11-.553 6.181-.455 1.435.091 2.226.266 2.219.371ZM263.108 110.908c-.371.252-1.449-.7-2.009-2.345-.56-1.645-.308-3.052.14-3.08.448-.028.938 1.134 1.4 2.541.462 1.407.861 2.632.469 2.884Z" opacity=".3"/><path fill="#fff" d="M304.451 93.737a3.03 3.03 0 0 1-.483.973 12.202 12.202 0 0 1-1.89 2.289 13.815 13.815 0 0 1-18.081.896 11.684 11.684 0 0 1-2.1-2.1c-.427-.553-.616-.889-.581-.917.035-.028.973 1.211 2.961 2.632a14.688 14.688 0 0 0 3.787 1.932c1.645.55 3.378.787 5.11.7 1.735-.1 3.436-.52 5.019-1.239a14.563 14.563 0 0 0 3.57-2.303 30.631 30.631 0 0 0 2.688-2.863Z"/><path fill="#E0E0E0" d="M314.95 66.5a7.321 7.321 0 0 0-5.285 2.261 7.34 7.34 0 0 0-11.388.98 7.343 7.343 0 0 0-1.254 4.116c0 6.538 12.642 14.448 12.642 14.448s12.642-7.91 12.642-14.448a7.36 7.36 0 0 0-7.357-7.357ZM282.421 66.5a7.324 7.324 0 0 0-5.285 2.261 7.344 7.344 0 0 0-12.642 5.096c0 6.538 12.642 14.448 12.642 14.448s12.663-7.931 12.663-14.469a7.362 7.362 0 0 0-7.378-7.336Z"/><path fill="#EBEBEB" d="M93.937 187.811c4.03-16.179-5.818-32.563-21.997-36.594-16.18-4.031-32.563 5.817-36.594 21.997-4.031 16.179 5.817 32.563 21.996 36.594 16.18 4.031 32.564-5.817 36.595-21.997Z"/><path fill="#E0E0E0" d="M91.56 176.547c.454 0 .958.77 1.322 2.324.438 2.199.474 4.459.105 6.671a27.132 27.132 0 0 1-3.297 9.471 28.187 28.187 0 0 1-19.894 14c-3.319.601-6.721.575-10.03-.077a18.545 18.545 0 0 1-6.245-2.352c-1.337-.861-1.918-1.603-1.743-2.023.392-.931 3.577-.231 8.4-.392 2.791-.082 5.563-.5 8.253-1.246a28.175 28.175 0 0 0 15.953-11.2 34.663 34.663 0 0 0 3.948-7.35c1.806-4.536 2.226-7.77 3.227-7.826Z"/><path fill="#fff" d="M73.696 176.757c.084.035-.371 1.281-1.862 2.758a11.2 11.2 0 0 1-14.973.749c-1.631-1.323-2.205-2.52-2.1-2.562.105-.042.875.931 2.506 2.051a11.419 11.419 0 0 0 14.168-.7c1.484-1.253 2.128-2.38 2.261-2.296ZM52.304 170.639a2.748 2.748 0 0 0-2.744-1.442c-.336.018-.66.127-.938.315a2.976 2.976 0 0 0-1.106 2.8 2.647 2.647 0 0 0 3.353 1.988 2.726 2.726 0 0 0 1.435-3.661ZM84 173.558c-.154 0 0-.98-.511-2.303a4.856 4.856 0 0 0-1.463-1.925 4.425 4.425 0 0 0-2.751-.875c-.99.007-1.947.35-2.716.973a4.75 4.75 0 0 0-1.4 1.974c-.504 1.337-.28 2.289-.434 2.31-.154.021-.567-.917-.175-2.506a4.993 4.993 0 0 1 3.313-3.41 4.993 4.993 0 0 1 4.667.904 4.985 4.985 0 0 1 1.547 2.359c.448 1.561-.007 2.541-.077 2.499Z"/><path fill="#E0E0E0" d="M53.529 46.13a4.69 4.69 0 1 1-4.2-5.11 4.683 4.683 0 0 1 4.2 5.11Z"/><path fill="#E0E0E0" d="M52.996 44.513c-.245.154-2.926-4.004-5.236-9.59-2.31-5.586-4.102-10.08-3.878-10.199.224-.119 2.541 4.2 4.83 9.8 2.29 5.6 4.53 9.842 4.284 9.989Z"/><path fill="#E0E0E0" d="M52.983 20.377c.245.105-.98 2.45-3.76 3.885-2.778 1.435-5.396 1.12-5.34.861.056-.259 2.366-.441 4.858-1.771 2.492-1.33 3.99-3.157 4.242-2.975ZM54.6 24.969c.265.084-.855 2.471-3.669 3.675-2.813 1.204-5.313.427-5.194.182.12-.245 2.317 0 4.782-1.127 2.464-1.127 3.828-2.905 4.08-2.73ZM36.26 131.537a3.175 3.175 0 0 1-2.517 2.476 3.183 3.183 0 0 1-3.25-1.377 3.176 3.176 0 0 1 1.459-4.69 3.179 3.179 0 0 1 4.307 3.591Z"/><path fill="#E0E0E0" d="M36.022 130.41c-.273.133-1.862-2.849-3.003-6.797-1.141-3.948-1.918-7.105-1.652-7.21.266-.105 1.589 2.982 2.709 6.895 1.12 3.913 2.219 6.979 1.946 7.112Z"/><path fill="#E0E0E0" d="M41.629 115.451c.168.196-1.778 2.002-4.942 2.583a7.433 7.433 0 0 1-4.032-.294c-1.001-.392-1.4-.98-1.316-1.071.084-.091.623.168 1.54.329 1.2.2 2.426.181 3.619-.056 2.842-.504 4.949-1.785 5.131-1.491ZM46.514 130.592a3.176 3.176 0 0 1-4.35 2.28 3.179 3.179 0 0 1 1.88-6.039 3.19 3.19 0 0 1 2.47 3.759Z"/><path fill="#E0E0E0" d="M46.277 129.458c-.273.133-1.855-2.849-2.996-6.79s-1.918-7.112-1.652-7.217c.266-.105 1.582 2.989 2.702 6.895 1.12 3.906 2.219 6.986 1.946 7.112Z"/><path fill="#E0E0E0" d="M42.328 117.509c.21.189-1.533 2.037-4.48 2.688-2.947.651-5.306-.259-5.194-.525.112-.266 2.317.063 4.956-.553 2.64-.616 4.515-1.869 4.718-1.61Z"/><path fill="#FB94FF" d="M282.527 207.9a24.186 24.186 0 0 1 0-48.37 24.182 24.182 0 0 1 24.185 24.185 24.182 24.182 0 0 1-24.185 24.185Z"/><path fill="#fff" d="M282.527 172.851c3.542 0 3.962 0 5.362.077.839.011 1.67.165 2.457.455a4.151 4.151 0 0 1 1.526.994c.443.426.783.948.994 1.526.293.789.447 1.623.455 2.464.063 1.4.077 1.813.077 5.355 0 3.542 0 3.962-.077 5.362a7.278 7.278 0 0 1-.455 2.464 4.417 4.417 0 0 1-2.52 2.513 7.234 7.234 0 0 1-2.457.455c-1.4.063-1.82.077-5.362.077s-3.962 0-5.355-.077a7.274 7.274 0 0 1-2.464-.455 3.976 3.976 0 0 1-1.526-.994 4.205 4.205 0 0 1-.994-1.519 7.278 7.278 0 0 1-.455-2.464c-.063-1.4-.077-1.82-.077-5.362s0-3.955.077-5.355a7.278 7.278 0 0 1 .455-2.464 4.206 4.206 0 0 1 .994-1.526c.429-.44.95-.78 1.526-.994a7.454 7.454 0 0 1 2.492-.483c1.4-.063 1.813-.077 5.355-.077m0-2.387c-3.598 0-4.053 0-5.467.077a9.68 9.68 0 0 0-3.22.616 6.815 6.815 0 0 0-2.345 1.533 6.815 6.815 0 0 0-1.533 2.345 9.714 9.714 0 0 0-.616 3.22c-.063 1.4-.077 1.869-.077 5.467s0 4.053.077 5.467a9.63 9.63 0 0 0 .616 3.22 6.784 6.784 0 0 0 3.878 3.878 9.68 9.68 0 0 0 3.22.616c1.4.07 1.869.084 5.467.084s4.053 0 5.467-.084c1.1-.02 2.19-.228 3.22-.616a6.736 6.736 0 0 0 3.878-3.878 9.654 9.654 0 0 0 .616-3.22c.063-1.4.084-1.862.084-5.467 0-3.605 0-4.053-.084-5.467a9.74 9.74 0 0 0-.616-3.22 6.772 6.772 0 0 0-1.53-2.348 6.772 6.772 0 0 0-2.348-1.53 9.634 9.634 0 0 0-3.22-.616c-1.4-.063-1.862-.077-5.467-.077Z"/><path fill="#fff" d="M282.527 176.911a6.806 6.806 0 0 0-6.293 4.205 6.812 6.812 0 0 0 11.956 6.39 6.814 6.814 0 0 0-.847-8.6 6.812 6.812 0 0 0-4.816-1.995Zm0 11.2a4.417 4.417 0 0 1-2.458-.746 4.42 4.42 0 0 1-.67-6.806 4.422 4.422 0 0 1 6.806.67 4.427 4.427 0 0 1-1.984 6.547 4.416 4.416 0 0 1-1.694.335ZM291.2 176.645a1.598 1.598 0 0 1-1.903 1.573 1.597 1.597 0 0 1-.581-2.893 1.604 1.604 0 0 1 2.016.194 1.593 1.593 0 0 1 .468 1.126Z"/><path fill="#263238" d="M147.7 275.919a132.045 132.045 0 0 0-6.167 14.175c-2.583 7.217-7.763 46.522-7.763 46.522l106.827-.308 2.401-.112s-3.276-48.629-17.15-64.484l-78.148 4.207ZM251.44 193.326c-1.295-1.365-2.891-2.513-3.745-4.2-2.226-4.368 1.603-9.59.784-14.42-1.141-6.762-9.919-8.75-14.427-13.923-5.432-6.23-3.703-15.659-2.352-23.8 1.61-9.73 2.198-19.866-.658-29.302-1.435-4.746-4.704-9.541-8.785-13.51a31.795 31.795 0 0 0-20.874-8.834c-7-.294-13.496 7-19.222 11.074-12.313 8.708-18.844 17.976-21.231 34.706-3.08 21.602 4.438 43.813 17.241 61.481 10.367 14.308 24.787 26.418 42 30.506 6.3 1.491 12.936 1.876 19.131.077s11.9-5.95 14.588-11.802c2.688-5.852 1.995-13.377-2.45-18.053Z"/><path fill="#AFC2FF" d="M228.753 194.929a7.111 7.111 0 0 0 .602-2.45 9.797 9.797 0 0 0-2.45-6.3c-.889-1.169-2.002-2.352-3.073-3.745a11.634 11.634 0 0 1-2.436-5.089 6.457 6.457 0 0 1 .21-3.122c.35-1.043 1.043-1.883 1.4-2.8a2.494 2.494 0 0 0-.406-2.723c-.644-.812-1.568-1.512-2.247-2.499a10.838 10.838 0 0 1-1.792-6.44 19.662 19.662 0 0 1 1.155-6.104c1.267-3.731 2.765-6.937 3.255-9.8a13.185 13.185 0 0 0-.336-6.832 14.222 14.222 0 0 0-1.12-2.289 6.12 6.12 0 0 1 1.358 2.198 13.041 13.041 0 0 1 .553 7c-.448 2.989-1.925 6.258-3.143 9.94a19.617 19.617 0 0 0-1.085 5.929 10.23 10.23 0 0 0 1.687 6.055c.602.896 1.498 1.568 2.226 2.478.38.467.64 1.02.756 1.61.085.595 0 1.201-.245 1.75-.441 1.043-1.113 1.862-1.4 2.8a5.87 5.87 0 0 0-.203 2.8 11.22 11.22 0 0 0 2.275 4.9c1.029 1.4 2.1 2.583 3.01 3.787 1.848 2.38 2.506 4.9 2.331 6.587a4.87 4.87 0 0 1-.497 1.869 1.944 1.944 0 0 1-.385.49ZM213.346 175.434s-.091-.119-.203-.364a8.768 8.768 0 0 1-.434-1.092 14.655 14.655 0 0 1-.7-4.277 24.11 24.11 0 0 1 .756-6.384 56.775 56.775 0 0 1 2.485-7.441c1.029-2.576 1.988-5.026 2.688-7.308a29.363 29.363 0 0 0 1.267-6.174c.294-3.605-.49-5.782-.343-5.81.224.481.384.989.476 1.512.301 1.421.41 2.876.322 4.326a27.264 27.264 0 0 1-1.148 6.3c-.7 2.324-1.631 4.802-2.653 7.371a60.484 60.484 0 0 0-2.506 7.35 25.137 25.137 0 0 0-.882 6.23c-.035 3.64 1.029 5.719.875 5.761Z"/><path fill="#FB94FF" d="M166.6 153.118c-1.176.784-28.203-.392-32.123 4.697 0 0 4.2 106.743 13.237 118.104l78.148-4.2-9.954-97.825 4.487-10.619-23.625-7-30.17-3.157Z"/><path fill="#232121" d="M140.847 229.712c3.178 1.085 6.783.329 9.646-1.4 2.863-1.729 5.075-4.403 6.909-7.21 5.194-7.959 7.7-17.416 8.659-26.873.959-9.457.343-18.984-.266-28.469-.966 9.576-1.939 19.18-4.144 28.553-2.205 9.373-5.691 18.543-11.305 26.362a20.262 20.262 0 0 1-5.096 5.292 9.042 9.042 0 0 1-7.035 1.463" opacity=".2"/><path fill="#FB94FF" d="M168.56 127.876a14.873 14.873 0 0 1-4.76-8.722 11.326 11.326 0 0 1 2.884-9.338 9.15 9.15 0 0 1 9.289-2.387"/><path fill="#AFC2FF" d="M187.11 87.99c7.147-4.2 12.299-4.004 17.941-2.8 8.561 1.82 16.947 6.741 21.532 14.189 4.2 6.846 4.599 15.533 2.583 23.31-.7 2.744-2.499 4.942-4.235 7.182-1.736 2.24-5.887 4.319-8.708 4.62-2.821.301-3.5-.875-4.76-3.402-.784-1.547-.868-3.339-.952-5.068-.378-7.322-1.211-14.721-4.011-21.49-2.8-6.769-8.008-12.831-14.889-15.316"/><path fill="#263238" d="M178.171 101.269a17.497 17.497 0 0 1 8.939-13.3c3.689-1.974 8.001-2.541 12.173-2.296 5.6.336 11.27 2.184 15.4 6.013 4.13 3.829 6.405 9.8 5.026 15.246-.63 2.471-1.974 4.795-2.037 7.343 0 1.113.161 2.331-.49 3.227a2.638 2.638 0 0 1-2.744.847 5.889 5.889 0 0 1-2.562-1.568c-2.52-2.366-4.2-5.474-5.81-8.526"/><path fill="#FFBE9D" d="M177.163 103.775c3.192-7.252 11.459-14.553 18.564-11.053l20.958 14.322a4.65 4.65 0 0 1 2.268 5.852L196 167.685l-8.267 4.732c-7.644 4.382-17.5-.434-18.333-9.205a5.629 5.629 0 0 1 0-1.512c.058-.408.14-.812.245-1.211a38.733 38.733 0 0 1 2.702-7.7c1.596-4.515 2.275-6.356 2.261-6.3-.014.056-8.911-5.061-6.3-18.158 1.288-6.531 5.292-16.499 8.855-24.556Z"/><path fill="#263238" d="M176.085 112.532c.119.28 1.652-.168 3.36.462s2.639 1.946 2.905 1.806c.126-.056.063-.504-.336-1.106a4.715 4.715 0 0 0-2.233-1.701 4.405 4.405 0 0 0-2.765-.105c-.679.21-.994.518-.931.644ZM193.151 119c.119.28 1.652-.168 3.353.462 1.701.63 2.646 1.946 2.912 1.806.119-.063.063-.504-.343-1.106a4.589 4.589 0 0 0-2.233-1.701 4.47 4.47 0 0 0-2.765-.112c-.672.217-.987.532-.924.651ZM183.239 126.7c.042-.098-.952-.7-2.59-1.526-.42-.203-.798-.441-.763-.763.127-.465.394-.88.763-1.19l2.513-2.842c3.5-4.074 6.251-7.483 6.083-7.623-.168-.14-3.157 3.045-6.685 7.112l-2.464 2.884a2.752 2.752 0 0 0-.854 1.631 1.179 1.179 0 0 0 .483.903c.216.154.452.279.7.371 1.701.742 2.772 1.141 2.814 1.043Z"/><path fill="#EB996E" d="M174.636 146.482a33.603 33.603 0 0 0 18.2 1.666s-7.315 7.035-19.271 1.33l1.071-2.996Z"/><path fill="#263238" d="M203.168 114.527c.126-.511-1.512-1.33-3.136-2.73s-2.737-2.849-3.22-2.639c-.224.105-.238.658.077 1.442a6.87 6.87 0 0 0 1.946 2.604 6.939 6.939 0 0 0 2.898 1.491c.826.175 1.365.105 1.435-.168ZM185.248 104.797c-.287-.441-1.575-.119-3.073-.231-1.498-.112-2.751-.518-3.08-.112-.147.196 0 .623.539 1.064a4.48 4.48 0 0 0 4.956.28c.567-.378.777-.798.658-1.001Z"/><path fill="#FFBE9D" d="M207.83 132.335c.343-.917 2.205-2.702 3.171-2.506 2.569.511 6.874 2.317 4.648 8.505-3.045 8.456-10.906 3.654-10.836 3.409.07-.245 1.841-6.223 3.017-9.408Z"/><path fill="#EB996E" d="M208.551 139.468c.049 0 .112.154.322.357.294.279.687.43 1.092.42 1.008 0 2.275-1.155 2.863-2.66a5.228 5.228 0 0 0 .35-2.261 1.803 1.803 0 0 0-.7-1.526.794.794 0 0 0-1.015.091c-.196.196-.203.378-.252.378-.049 0-.133-.203.063-.532.124-.191.309-.334.525-.406a1.14 1.14 0 0 1 .889.077 2.203 2.203 0 0 1 1.071 1.862 5.35 5.35 0 0 1-.343 2.541c-.665 1.687-2.1 2.968-3.458 2.884a1.674 1.674 0 0 1-1.267-.7c-.196-.315-.175-.518-.14-.525Z"/><path fill="#263238" d="M195.104 90.839a12.287 12.287 0 0 0 4.354 11.774c1.848 1.456 4.305 2.611 4.851 4.9.546 2.289-1.225 4.725-.784 7.084.623 3.276 5.159 4.9 5.285 8.218.056 1.456-.805 2.835-.7 4.284.112 1.939 1.988 3.5 3.92 3.591a6.661 6.661 0 0 0 5.117-2.331 18.168 18.168 0 0 0 2.968-4.97c1.561-3.5 2.996-7.098 3.234-10.899.497-7.973-5.964-21.784-13.594-24.15"/><path fill="#AFC2FF" d="M210.329 92.638c-.049.203-3.57-1.281-8.071-.7-4.501.581-7.595 2.758-7.7 2.569a5.96 5.96 0 0 1 1.974-1.442 15.777 15.777 0 0 1 11.543-1.365 5.954 5.954 0 0 1 2.254.938ZM201.124 88.627c0 .196-2.1.364-4.102 1.96-2.002 1.596-2.688 3.598-2.87 3.5-.182-.098 0-.567.336-1.4a7.422 7.422 0 0 1 5.222-4.109c.868-.105 1.414-.028 1.414.049Z"/><path fill="#EB996E" d="M184.492 135.394c1.673-.315 3.213-1.232 3.395-2.989a1.867 1.867 0 0 0-.777-1.925 3.163 3.163 0 0 0-1.708-.294c-1.778.42-3.339.938-5.159.889 0 0-.868 1.659 0 2.919s2.576 1.715 4.249 1.4Z"/><path fill="#263238" d="M182.483 135.366s.224.049.63.07a6.396 6.396 0 0 0 1.694-.182 3.677 3.677 0 0 0 2.1-1.204 3.022 3.022 0 0 0 .665-2.8 1.338 1.338 0 0 0-1.008-.945 2.99 2.99 0 0 0-1.4.147c-.817.301-1.668.504-2.534.602-.581.056-1.166.075-1.75.056a2.536 2.536 0 0 1-.644-.056c0-.07.917-.07 2.366-.252a12.723 12.723 0 0 0 2.471-.665 3.174 3.174 0 0 1 1.582-.182 1.714 1.714 0 0 1 1.288 1.176 3.3 3.3 0 0 1-.763 3.122 3.593 3.593 0 0 1-1.141.868 5.811 5.811 0 0 1-2.947.434c-.392-.049-.623-.168-.609-.189Z"/><path fill="#FB94FF" d="M134.722 157.157s-4.634 4.235-6.391 8.561c-2.184 5.369-10.374 15.211-10.045 23.037.259 6.041 2.422 15.932 18.34 13.216 15.918-2.716 17.955-14.742 17.955-14.742l-8.47-26.425-11.389-3.647Z"/><path fill="#232121" d="M134.869 157.402s-5.054 4.263-6.538 8.316c-1.995 5.439-10.374 15.211-10.045 23.037.259 6.041 2.422 15.932 18.34 13.216 15.918-2.716 9.226-13.062 9.226-13.062l.259-28.105-11.242-3.402Z" opacity=".3"/><path fill="#FB94FF" d="M146.454 184.52s-14.07-9.1-27.692.385c-.266.182.448-1.785 1.561-4.2 2.1-4.473 5.39-10.899 5.39-10.899s7.21-13.419 10.696-13.419l10.045 3.038v25.095Z"/><path fill="#FFBE9D" d="M127.078 181.174s-1.722 19.943-1.295 27.58c.427 7.637 7.406 28.357 21.742 17.745 14.336-10.612 19.271-71.939 19.271-71.939l-10.696-4.655-12.537 33.117a22.232 22.232 0 0 0-7.763-2.198 26.56 26.56 0 0 0-8.722.35Z"/><path fill="#FFBE9D" d="m155.883 151.473-5.831-28.203 5.845-14.133a3.79 3.79 0 0 1 2.1 3.766c-.217 2.758-2.842 9.401-2.842 9.401l7.483-10.234s2.1.903.987 3.416-4.515 7.875-4.515 7.875l3.647 9.541s.763-4.935 2.387-4.564c1.624.371 1.302 4.508 1.302 4.508l-.336 8.169s2.597 5.509 1.96 9.1a17.989 17.989 0 0 1-1.897 5.705l-10.29-4.347Z"/><path fill="#FB94FF" d="M228.053 169.169c-3.584-4.732-7.819-5.789-7.819-5.789l-6.3 12.159 8.554 30.408c6.776-3.871 14.224-6.3 20.426-5.859-.014 0-9.954-24.451-14.861-30.919Z"/><path fill="#232121" d="M220.857 163.366c2.1 4.298-.308 9.366-.294 14.161 0 7.476 6.006 13.832 6.524 21.287.14 1.995-.182 4.144-1.491 5.656-1.309 1.512-3.829 2.065-5.362.77a6.192 6.192 0 0 1-1.61-2.877l-6.174-17.997c-.847-2.471-1.708-5.033-1.456-7.63.49-5.033 4.865-8.666 8.897-11.711" opacity=".2"/><path fill="#FB94FF" d="M221.582 136.872c1.385-5.898-1.96-11.727-7.47-13.021-5.51-1.293-11.099 2.44-12.483 8.337-1.385 5.898 1.96 11.728 7.47 13.021 5.51 1.293 11.099-2.439 12.483-8.337Z"/><path fill="#263238" d="M208.306 145.026s-.112-.035-.301-.147a6.534 6.534 0 0 1-.791-.525 8.583 8.583 0 0 1-2.324-2.604 10.33 10.33 0 0 1-1.295-5.012 11.89 11.89 0 0 1 1.4-6.174 12.078 12.078 0 0 1 4.382-4.578 9.514 9.514 0 0 1 4.991-1.4 6.637 6.637 0 0 1 3.374.889c.275.161.531.354.763.574.161.147.238.231.224.245-.014.014-.364-.28-1.078-.651a6.776 6.776 0 0 0-3.283-.7 9.399 9.399 0 0 0-4.76 1.449 11.787 11.787 0 0 0-4.2 4.431 11.659 11.659 0 0 0-1.4 5.929 10.313 10.313 0 0 0 1.141 4.851 9.463 9.463 0 0 0 2.149 2.625c.352.245.688.512 1.008.798Z"/><path fill="#263238" d="M204.246 126.959c.133 0 0 .833.511 1.547s1.337.812 1.323.945c-.014.133-.21.133-.56.077a1.94 1.94 0 0 1-1.155-.7 1.892 1.892 0 0 1-.357-1.316c.049-.392.182-.567.238-.553ZM203.889 130.34c.077-.112.385-.042.742.049s.651.189.658.329c.007.14-.35.259-.784.14-.434-.119-.686-.406-.616-.518ZM201.824 139.167c.07-.119.553.049 1.134-.049.581-.098 1.001-.364 1.106-.273.105.091-.266.651-1.036.756-.77.105-1.295-.301-1.204-.434Z"/><path fill="#FB94FF" d="M220.801 133.273s9.149-1.932 11.158-6.559a19.506 19.506 0 0 1-.602 7.987l-12.6 5.992 2.044-7.42Z"/><path fill="#263238" d="M221.704 132.587c.122.39.181.796.175 1.204a12.37 12.37 0 0 1-.091 2.947c-.14 1-.501 1.957-1.057 2.8-.434.63-.833.903-.861.875-.028-.028.28-.378.644-1.015a8.054 8.054 0 0 0 .917-2.695c.134-.953.199-1.915.196-2.877a4.06 4.06 0 0 1 .077-1.239ZM201.635 219.989a4.65 4.65 0 0 1-.203.546l-.644 1.526c-.147.336-.301.7-.476 1.106-.175.406-.406.819-.637 1.281-.469.91-.959 1.974-1.638 3.073-.329.553-.7 1.141-1.022 1.743-.322.602-.791 1.204-1.204 1.841-.812 1.288-1.813 2.562-2.835 3.927a63.75 63.75 0 0 1-16.478 14.756c-1.47.868-2.849 1.722-4.2 2.387-.7.343-1.316.7-1.96.994l-1.848.826c-1.169.553-2.282.924-3.234 1.295-.483.175-.924.357-1.344.49-.42.133-.798.245-1.148.35l-1.589.476a3.08 3.08 0 0 1-.56.14c.173-.087.353-.157.539-.21l1.568-.539 1.134-.378c.413-.147.847-.336 1.323-.518.952-.385 2.051-.77 3.206-1.337l1.827-.847c.637-.294 1.274-.658 1.946-1.008 1.351-.7 2.723-1.533 4.2-2.408a65.53 65.53 0 0 0 16.387-14.7c1.029-1.358 2.03-2.618 2.849-3.892.42-.63.847-1.218 1.211-1.82.364-.602.7-1.176 1.043-1.729.7-1.085 1.197-2.1 1.68-3.031.238-.455.469-.875.665-1.267.196-.392.35-.756.497-1.085.294-.63.532-1.127.7-1.498.07-.169.152-.333.245-.49ZM147.175 165.739a36.416 36.416 0 0 0-1.799-5.208 38.291 38.291 0 0 0-2.884-4.697c.431.338.811.736 1.127 1.183a17.442 17.442 0 0 1 3.36 7.098c.148.528.214 1.076.196 1.624Z"/><path fill="#FAFAFA" d="M201.754 204.323c-.035 0-.42-.623-1.295-1.645a18.869 18.869 0 0 0-4.298-3.675 18.43 18.43 0 0 0-7.861-2.653 17.943 17.943 0 0 0-17.108 9.205 18.433 18.433 0 0 0-2.135 8.043 18.722 18.722 0 0 0 .7 5.6c.371 1.295.7 1.967.658 1.988a2.772 2.772 0 0 1-.238-.49c-.214-.474-.399-.96-.553-1.456a17.664 17.664 0 0 1-.819-5.656 18.3 18.3 0 0 1 2.1-8.204A18.12 18.12 0 0 1 188.3 196a18.45 18.45 0 0 1 7.994 2.8 17.927 17.927 0 0 1 4.277 3.801c.325.406.629.829.91 1.267.105.142.197.295.273.455ZM191.317 233.744a3.295 3.295 0 0 1-.812.189 7.399 7.399 0 0 1-.973.126c-.43.047-.862.071-1.295.07a13.573 13.573 0 0 1-1.575-.049 17.836 17.836 0 0 1-1.799-.231 18.511 18.511 0 0 1-7.56-3.276 17.679 17.679 0 0 1-1.4-1.148c-.394-.348-.765-.72-1.113-1.113a11.373 11.373 0 0 1-.84-.994 6.37 6.37 0 0 1-.567-.798 3.475 3.475 0 0 1-.42-.7c.063-.042.7.966 2.009 2.338.358.373.737.726 1.134 1.057.447.393.914.762 1.4 1.106a19.084 19.084 0 0 0 7.427 3.22c.623.105 1.204.217 1.764.259.56.042 1.071.084 1.547.098 1.897.007 3.066-.231 3.073-.154Z"/><path fill="#FAFAFA" d="M187.439 216.573a15.93 15.93 0 0 1-1.204 2.1 104.667 104.667 0 0 1-3.171 4.9c-1.288 1.862-2.541 3.556-3.5 4.718a35.267 35.267 0 0 1-1.162 1.351c-.287.308-.448.469-.469.455.424-.685.892-1.342 1.4-1.967a146.72 146.72 0 0 0 3.395-4.767l3.255-4.9c.438-.665.924-1.297 1.456-1.89ZM200.62 222.306c-.042.091-3.024-1.197-6.664-2.877-3.64-1.68-6.559-3.122-6.517-3.213.042-.091 3.024 1.197 6.671 2.877 3.647 1.68 6.552 3.122 6.51 3.213Z"/><path fill="#FAFAFA" d="M185.892 197.344c.034.121.052.246.056.371 0 .287.056.637.098 1.071.098.98.231 2.303.399 3.92.378 3.36.889 7.91 1.456 12.929s1.106 9.576 1.491 12.936c.175 1.617.315 2.94.42 3.92 0 .434.07.784.091 1.071.02.125.02.253 0 .378a2.443 2.443 0 0 1-.077-.371c-.042-.28-.098-.63-.161-1.057-.133-.98-.315-2.303-.532-3.913a804.215 804.215 0 0 1-1.603-12.922c-.588-5.054-1.064-9.625-1.351-12.943-.147-1.659-.231-3.01-.28-3.941v-1.071a1.229 1.229 0 0 1-.007-.378Z"/><path fill="#263238" d="M179.396 214.424a3.083 3.083 0 0 1-.245.819 12.037 12.037 0 0 1-1.064 2.1 13.31 13.31 0 0 1-5.772 5.023 13.307 13.307 0 0 1-7.584 1.011 12.06 12.06 0 0 1-2.268-.588 2.82 2.82 0 0 1-.777-.35c1.011.298 2.039.531 3.08.7a13.563 13.563 0 0 0 13.104-5.915 26.048 26.048 0 0 0 1.526-2.8Z"/><path fill="#232121" d="M163.226 223.37c-1.169-1.155-3.374-.609-4.2.826a4.085 4.085 0 0 0 .749 4.543 7.983 7.983 0 0 0 4.284 2.226c3.628.825 7.435.202 10.612-1.736a12.306 12.306 0 0 0 5.684-9.009 2.059 2.059 0 0 0-.553-1.925c-.861-.616-1.981.196-2.8.889a17.783 17.783 0 0 1-15.253 3.948M171.5 258.37a50.672 50.672 0 0 0 27.797-17.5c1.071-1.344 2.345-2.87 4.06-2.856a3.283 3.283 0 0 1 2.8 1.925 5.284 5.284 0 0 1 .224 3.5c-.854 3.409-3.899 5.74-6.811 7.7-4.158 2.8-8.491 5.432-13.244 7-4.753 1.568-9.989 2.1-14.777.595" opacity=".2"/><path fill="#EB996E" d="M155.897 109.137s.091 0 .238.084c.225.086.434.212.616.371a3.503 3.503 0 0 1 1.232 2.317 9.4 9.4 0 0 1-.406 3.892l-1.54 4.508c-.238.7-.483 1.4-.7 2.051v-.119c.994 2.681 1.848 5.04 2.443 6.734l.7 2.002c.093.226.163.46.21.7a3.241 3.241 0 0 1-.329-.7l-.791-1.96a718.058 718.058 0 0 1-2.555-6.692v-.119c.231-.665.469-1.358.7-2.058l1.561-4.487a9.42 9.42 0 0 0 .469-3.759 3.506 3.506 0 0 0-1.064-2.247 2.832 2.832 0 0 0-.56-.413 1.018 1.018 0 0 1-.224-.105ZM166.509 143.864c-.049 0-.392-.7-1.05-1.722a21.014 21.014 0 0 0-3.031-3.773 21.424 21.424 0 0 0-3.822-2.961c-1.064-.637-1.771-.966-1.743-1.022.18.031.354.087.518.168.464.182.916.394 1.351.637a17.672 17.672 0 0 1 6.944 6.818c.247.43.469.874.665 1.33.133.329.196.511.168.525ZM165.368 141.323c-.105 0-.595-2.1-1.4-4.599-.805-2.499-1.68-4.501-1.582-4.543.293.377.529.794.7 1.239a30.9 30.9 0 0 1 2.142 6.496c.111.461.158.934.14 1.407Z"/><path fill="#FFBE9D" d="M208.117 150.283s-3.773 0-4.263 5.257a65.8 65.8 0 0 1-.987 7.385s-4.9 6.727-4.9 10.178c0 3.451 1.127 10.619 1.127 10.619l15.974-4.074-1.092-4.2 10.094-18.256 5.908-19.04s-2.135-1.316-3.612 0c-1.477 1.316-4.263 6.398-4.263 6.398s-2.961-3.934-4.9-3.773a1.561 1.561 0 0 0-1.302.84 2.405 2.405 0 0 0 .602 2.94l1.687 1.477-.497 5.068-8.694 8.064-.882-8.883Z"/><path fill="#EB996E" d="M212.345 166.383c.125-.313.285-.611.476-.889a17.504 17.504 0 0 1 1.701-2.156c.784-.861 1.785-1.806 2.884-2.87a22.845 22.845 0 0 0 3.248-3.689 10.65 10.65 0 0 0 1.722-4.536c.17-1.332.201-2.679.091-4.018-.077-1.148-.189-2.1-.259-2.716a5.246 5.246 0 0 1-.077-1.001c.099.32.171.648.217.98.112.637.266 1.561.378 2.716.153 1.358.153 2.73 0 4.088a10.745 10.745 0 0 1-1.743 4.683 22.252 22.252 0 0 1-3.325 3.738c-1.113 1.05-2.1 1.967-2.926 2.8a22.318 22.318 0 0 0-1.771 2.065 6.697 6.697 0 0 1-.616.805ZM218.26 150.731a4.599 4.599 0 0 1-.665.651l-1.904 1.68c-1.61 1.4-3.829 3.367-6.244 5.6a920.902 920.902 0 0 0-6.118 5.712c-.735.7-1.358 1.281-1.848 1.736a5.012 5.012 0 0 1-.7.609c.179-.254.383-.488.609-.7a99.15 99.15 0 0 1 1.771-1.82 166.11 166.11 0 0 1 6.048-5.796 195.864 195.864 0 0 1 6.3-5.495c.833-.7 1.505-1.225 1.981-1.589.234-.224.492-.421.77-.588Z"/><path fill="#FFBE9D" d="M199.066 183.722s9.667 52.822 12.271 56.7c2.604 3.878 10.052 14.882 18.396 13.874 8.344-1.008 13.244-9.765 14.28-17.92 1.036-8.155-6.44-36.575-6.44-36.575-6.944-.77-8.925.287-13.545 4.354l-8.988-24.5-15.974 4.067Z"/><path fill="#EB996E" d="M214.256 175.161a7.274 7.274 0 0 1-.903 1.246l-2.254 2.954c-1.75 2.317-3.367 4.053-3.451 3.976.255-.449.558-.869.903-1.253l2.254-2.947c1.75-2.324 3.395-4.06 3.451-3.976ZM231.7 230.216a3.522 3.522 0 0 1 0-.581c0-.378 0-.945-.049-1.666a35.901 35.901 0 0 0-.861-6.041 53.975 53.975 0 0 0-2.8-8.617c-.644-1.582-1.4-3.213-2.1-4.935-.7-1.722-1.4-3.5-2.156-5.348-2.863-7.371-5.257-14.112-7-18.991l-1.988-5.803-.511-1.582a4.364 4.364 0 0 1-.161-.56c.094.169.169.347.224.532l.581 1.561c.511 1.4 1.225 3.353 2.1 5.761 1.771 4.9 4.2 11.585 7.07 18.949.7 1.834 1.435 3.626 2.142 5.341.707 1.715 1.449 3.353 2.1 4.949a52.47 52.47 0 0 1 2.744 8.715c.439 2.005.689 4.046.749 6.097v1.666a3.041 3.041 0 0 1-.084.553ZM155.743 150.801s0 .056-.042.161l-.154.462c-.154.427-.364 1.008-.623 1.743-.574 1.547-1.4 3.724-2.366 6.412l-7.924 21.084c-.777 2.051-1.533 4.081-2.436 5.957a91.207 91.207 0 0 1-2.8 5.313 99.557 99.557 0 0 0-2.534 4.767 37.718 37.718 0 0 0-1.82 4.333 21.826 21.826 0 0 0-1.204 6.657 7.975 7.975 0 0 0 0 1.071v1.267a.543.543 0 0 1 0 .161.397.397 0 0 1 0-.161c0-.133 0-.287-.049-.483s0-.483-.063-.784a7.656 7.656 0 0 1 0-1.071 21.102 21.102 0 0 1 1.099-6.741 37.29 37.29 0 0 1 1.792-4.375c.742-1.533 1.596-3.136 2.513-4.802a100.674 100.674 0 0 0 2.744-5.306c.889-1.869 1.638-3.871 2.415-5.929 3.129-8.211 5.964-15.638 8.029-21.049 1.029-2.667 1.876-4.837 2.471-6.37.287-.7.518-1.302.7-1.722l.189-.448a.518.518 0 0 1 .063-.147Z"/><path fill="#AFC2FF" d="m240.016 14-109.564-.063a23.868 23.868 0 0 0-22.06 14.728c-1.2 2.896-1.817 6-1.817 9.135l-.056 274.673a23.862 23.862 0 0 0 23.856 23.87l109.564.07a23.886 23.886 0 0 0 9.135-1.814 23.883 23.883 0 0 0 14.742-22.049l.084-274.694a23.879 23.879 0 0 0-7.002-16.875A23.868 23.868 0 0 0 240.016 14Zm16.541 294.539a16.713 16.713 0 0 1-4.901 11.818 16.729 16.729 0 0 1-11.822 4.891l-109.347-.063a16.718 16.718 0 0 1-16.709-16.716l.056-268.1a16.7 16.7 0 0 1 4.898-11.82 16.719 16.719 0 0 1 11.825-4.889h26.061a5.282 5.282 0 0 1 4.803 3.368c.25.646.371 1.336.356 2.029V32.9a5.285 5.285 0 0 0 5.159 5.397h41.405A5.272 5.272 0 0 0 213.5 32.9v-3.85a5.279 5.279 0 0 1 5.159-5.39h21.245a16.714 16.714 0 0 1 16.702 16.716l-.049 268.163Z"/><path fill="#E0E0E0" d="M253.057 48.391H121.17a.868.868 0 0 0-.868.868v.21c0 .48.388.868.868.868h131.887a.868.868 0 0 0 .868-.868v-.21a.868.868 0 0 0-.868-.868Z"/><path fill="#FB94FF" d="M192.612 48.391H121.17a.868.868 0 0 0-.868.868v.21c0 .48.388.868.868.868h71.442a.868.868 0 0 0 .868-.868v-.21a.868.868 0 0 0-.868-.868Z"/><path fill="#263238" d="M161.336 66.003v3.01h-.574l-1.505-1.813v1.827h-.7v-3.01h.574l1.498 1.827v-1.841h.707ZM161.917 66.003a.387.387 0 0 1 .127-.28.389.389 0 0 1 .293-.098.377.377 0 1 1-.42.378Zm.084.7h.7v2.31h-.7v-2.31ZM163.1 67.858a1.2 1.2 0 0 1 .387-.878 1.191 1.191 0 0 1 .908-.312 1.066 1.066 0 0 1 1.036.588l-.525.28a.576.576 0 0 0-.518-.322.645.645 0 0 0-.456 1.1c.121.12.285.188.456.188a.577.577 0 0 0 .518-.322l.525.287a1.072 1.072 0 0 1-1.036.581 1.199 1.199 0 0 1-1.295-1.19ZM166.809 68.11l-.322.315v.588h-.7V65.8h.7v1.806l.98-.924h.805l-.973 1.001 1.05 1.33h-.812l-.728-.903ZM171.009 67.69v1.323h-.7v-1.218c0-.378-.175-.546-.469-.546s-.56.196-.56.623v1.141h-.7v-2.31h.644v.266a1.03 1.03 0 0 1 .77-.301.902.902 0 0 1 1.015 1.022ZM173.663 67.697v1.316h-.63v-.287a.767.767 0 0 1-.7.322c-.539 0-.861-.301-.861-.7 0-.399.287-.7.994-.7h.532c0-.287-.175-.455-.532-.455a1.134 1.134 0 0 0-.7.217l-.238-.469a1.77 1.77 0 0 1 1.001-.28c.721.007 1.134.329 1.134 1.036Zm-.7.588v-.238h-.462c-.315 0-.413.119-.413.273 0 .154.14.28.378.28a.495.495 0 0 0 .525-.315h-.028ZM178.178 67.69v1.323h-.7v-1.218c0-.378-.168-.546-.434-.546s-.518.189-.518.602v1.162h-.7v-1.218c0-.378-.154-.546-.434-.546s-.511.189-.511.602v1.162h-.7v-2.31h.644v.266a.909.909 0 0 1 .7-.301.859.859 0 0 1 .763.378 1.022 1.022 0 0 1 .833-.378.888.888 0 0 1 1.057 1.022ZM181.061 68.047h-1.757a.62.62 0 0 0 .7.462.778.778 0 0 0 .581-.224l.357.392a1.35 1.35 0 0 1-2.275-.819 1.19 1.19 0 0 1 .09-.468 1.188 1.188 0 0 1 .672-.648c.15-.056.31-.082.47-.074a1.143 1.143 0 0 1 .862.355 1.157 1.157 0 0 1 .314.877s-.014.091-.014.147Zm-1.764-.392h1.141a.578.578 0 0 0-.57-.471.581.581 0 0 0-.571.471ZM161.776 71.862l-.777 2.156h-.28l-.7-1.764-.7 1.764h-.273l-.805-2.156h.273l.7 1.834.7-1.834h.252l.7 1.834.7-1.834h.21ZM163.8 72.681v1.337h-.273v-.336a.802.802 0 0 1-.742.357c-.49 0-.784-.252-.784-.63s.21-.609.826-.609h.7v-.126a.534.534 0 0 0-.609-.574 1.063 1.063 0 0 0-.7.259l-.133-.217c.247-.2.558-.304.875-.294a.759.759 0 0 1 .798.5c.039.106.053.22.042.333Zm-.287.7v-.357h-.7c-.42 0-.553.168-.553.385s.196.406.539.406a.701.701 0 0 0 .679-.441l.035.007ZM164.255 73.773l.133-.231c.222.16.489.246.763.245.413 0 .581-.14.581-.357 0-.56-1.4-.119-1.4-.966 0-.35.301-.616.854-.616.268-.005.533.065.763.203l-.133.231a1.071 1.071 0 0 0-.63-.182c-.392 0-.56.147-.56.357 0 .581 1.4.14 1.4.966 0 .371-.329.616-.889.616a1.464 1.464 0 0 1-.882-.266ZM167.621 70.98h.294v3.038h-.294V70.98ZM168.657 71.19a.218.218 0 0 1 .427 0 .21.21 0 0 1-.217.21.203.203 0 0 1-.21-.21Zm.063.7h.294v2.156h-.315l.021-2.156ZM171.625 71.862l-.952 2.156h-.301l-.973-2.156h.301l.805 1.834.819-1.834h.301ZM173.844 73.031h-1.799a.802.802 0 0 0 .854.749.835.835 0 0 0 .658-.28l.168.189a1.074 1.074 0 0 1-.833.35 1.064 1.064 0 0 1-1.127-1.099 1.05 1.05 0 0 1 2.1 0s-.021.056-.021.091Zm-1.799-.217h1.554a.763.763 0 1 0-1.526 0h-.028ZM174.25 73.815a.208.208 0 0 1 .015-.085.212.212 0 0 1 .117-.122.224.224 0 1 1 0 .414.22.22 0 0 1-.117-.122.207.207 0 0 1-.015-.085ZM178.08 73.192c0 .483-.35.847-1.036.847a1.51 1.51 0 0 1-1.036-.364l.147-.238a1.224 1.224 0 0 0 .889.336c.469 0 .735-.224.735-.581s-.245-.567-.777-.567h-.203v-.217l.798-.994h-1.47v-.259h1.841v.21l-.805 1.015c.637.035.917.357.917.812ZM180.663 72.8v1.246h-.294V72.8c0-.455-.231-.7-.644-.7a.704.704 0 0 0-.717.473.696.696 0 0 0-.032.304v1.127h-.294V70.98h.294v1.26a.91.91 0 0 1 .805-.392.815.815 0 0 1 .859.581c.036.12.044.247.023.371ZM184.142 72.681v1.337h-.28v-.336a.785.785 0 0 1-.735.357c-.49 0-.791-.252-.791-.63s.217-.609.833-.609h.7v-.126a.534.534 0 0 0-.609-.574c-.257 0-.505.092-.7.259l-.126-.217c.247-.2.558-.304.875-.294a.76.76 0 0 1 .792.502c.038.106.052.219.041.331Zm-.287.7v-.357h-.7c-.413 0-.553.168-.553.385s.203.406.546.406a.7.7 0 0 0 .707-.441v.007ZM186.9 71.862v1.897a.945.945 0 0 1-.264.807.936.936 0 0 1-.807.264 1.532 1.532 0 0 1-1.008-.329l.147-.224c.237.198.538.302.847.294.546 0 .798-.245.798-.777V73.5a.98.98 0 0 1-.84.413 1.05 1.05 0 1 1 0-2.1.975.975 0 0 1 .854.434v-.42l.273.035Zm-.28 1.029a.816.816 0 0 0-.481-.781.82.82 0 1 0-.338 1.565.765.765 0 0 0 .6-.201.778.778 0 0 0 .247-.583h-.028ZM187.522 72.94a1.1 1.1 0 0 1 2.177-.214 1.096 1.096 0 0 1-.467 1.128c-.181.12-.394.185-.611.185a1.06 1.06 0 0 1-1.025-.673 1.054 1.054 0 0 1-.074-.426Zm1.897 0a.805.805 0 1 0-.798.84.786.786 0 0 0 .798-.84ZM126.839 99.813a.379.379 0 0 1-.252-.098l-3.108-3.115a.34.34 0 0 1-.105-.245.34.34 0 0 1 .105-.252l3.115-3.017a.357.357 0 0 1 .257-.135.352.352 0 0 1 .369.379.35.35 0 0 1-.143.253l-2.856 2.8 2.863 2.835a.338.338 0 0 1 .076.378.351.351 0 0 1-.321.217ZM244.72 99.813a.349.349 0 0 1-.321-.221.352.352 0 0 1 .083-.381l2.856-2.8-2.863-2.8a.352.352 0 0 1-.077-.383.35.35 0 0 1 .325-.215c.093 0 .182.036.249.101l3.108 3.08a.36.36 0 0 1 0 .504L245 99.715a.356.356 0 0 1-.28.098Z"/><path fill="#fff" d="M239.42 287.798H133.552c-6.452 0-11.683 5.231-11.683 11.683v2.758c0 6.452 5.231 11.683 11.683 11.683H239.42c6.452 0 11.683-5.231 11.683-11.683v-2.758c0-6.452-5.231-11.683-11.683-11.683Z"/><path fill="#FB94FF" d="M239.399 313.922s.259 0 .749-.056c.308-.01.615-.045.917-.105a7.766 7.766 0 0 0 1.246-.259 11.088 11.088 0 0 0 3.255-1.4 11.903 11.903 0 0 0 3.5-3.36 11.663 11.663 0 0 0 1.925-5.691c0-2.212.266-4.704-.56-7.175a11.598 11.598 0 0 0-5.089-6.3 11.448 11.448 0 0 0-4.235-1.491 39.734 39.734 0 0 0-4.781-.126l-102.753.049a11.563 11.563 0 0 0-11.011 8.092c-.966 4.578-.994 9.989 2.198 13.559a11.599 11.599 0 0 0 5.747 3.675 12.2 12.2 0 0 0 3.374.42h16.8l46.2.042 31.143.056 8.47.035h2.947-2.947l-8.47.035-31.143.056-46.2.042h-16.8a12.494 12.494 0 0 1-3.5-.434 11.846 11.846 0 0 1-5.922-3.78 12.924 12.924 0 0 1-1.883-3.073 12.493 12.493 0 0 1-.861-3.535c-.091-1.225-.042-2.415-.056-3.633.004-1.237.181-2.466.525-3.654a11.9 11.9 0 0 1 11.347-8.4l102.753.056a40.528 40.528 0 0 1 4.816.14 11.81 11.81 0 0 1 9.499 8.092c.384 1.212.582 2.474.588 3.745 0 1.218.035 2.38-.049 3.5a11.828 11.828 0 0 1-1.981 5.761 12.102 12.102 0 0 1-3.5 3.367 10.993 10.993 0 0 1-3.29 1.4 7.835 7.835 0 0 1-1.26.245 5.503 5.503 0 0 1-.924.084c-.504.021-.784.021-.784.021Z"/><path fill="#FB94FF" d="M238.216 308.511a7.812 7.812 0 1 0 0-15.624 7.812 7.812 0 0 0 0 15.624Z"/><path fill="#fff" d="M237.999 305.522a.23.23 0 0 1-.21-.175l-1.001-3.696-3.465-1.232a.226.226 0 0 1-.161-.224.248.248 0 0 1 .154-.224l8.183-2.912a.236.236 0 0 1 .259.063.244.244 0 0 1 .042.259l-3.542 8.001a.24.24 0 0 1-.259.14Zm-3.906-5.327 2.954 1.043a.247.247 0 0 1 .096.063.233.233 0 0 1 .058.098l.854 3.164 3.038-6.867-7 2.499Z"/><path fill="#fff" d="M236.977 301.7a.252.252 0 0 1-.245-.249c0-.064.026-.125.07-.171l4.571-4.2a.246.246 0 0 1 .343 0 .237.237 0 0 1 0 .336l-4.571 4.2a.248.248 0 0 1-.168.084Z"/><path fill="#263238" d="M151.025 298.704H149.8v-.329h2.884v.329h-1.253v3.241h-.378l-.028-3.241ZM155.267 299.264l-1.344 3.003c-.224.525-.511.7-.889.7a.945.945 0 0 1-.658-.245l.168-.273a.7.7 0 0 0 .49.21c.245 0 .406-.112.56-.448l.119-.266-1.204-2.674h.378l1.008 2.275 1.015-2.275.357-.007ZM158.493 300.601a1.29 1.29 0 0 1-.356.998 1.298 1.298 0 0 1-.981.402 1.182 1.182 0 0 1-1.022-.532v1.491h-.357v-3.668h.322v.532a1.188 1.188 0 0 1 1.036-.553 1.291 1.291 0 0 1 .968.371 1.304 1.304 0 0 1 .39.959Zm-.364 0a.995.995 0 0 0-.652-.89 1.007 1.007 0 0 0-1.074.251.997.997 0 0 0-.192 1.086c.078.18.207.333.372.44a.993.993 0 0 0 .552.163.988.988 0 0 0 .994-1.05ZM161.574 300.713h-2.247a.992.992 0 0 0 1.057.938 1.063 1.063 0 0 0 .819-.35l.203.231a1.32 1.32 0 0 1-.468.338 1.32 1.32 0 0 1-.568.103 1.33 1.33 0 0 1-1.4-1.4 1.298 1.298 0 0 1 .363-.964 1.297 1.297 0 0 1 .953-.394 1.278 1.278 0 0 1 1.221.84c.06.165.085.342.074.518l-.007.14Zm-2.247-.266h1.904a.954.954 0 0 0-.952-.952.95.95 0 0 0-.952.952ZM165.676 300.3v1.659h-.343v-.42a1.006 1.006 0 0 1-.924.448c-.609 0-.98-.315-.98-.784 0-.469.266-.756 1.036-.756h.854v-.147c0-.455-.266-.7-.763-.7a1.398 1.398 0 0 0-.889.315l-.168-.266a1.707 1.707 0 0 1 1.092-.364.953.953 0 0 1 1.085 1.015Zm-.357.854v-.441h-.819c-.518 0-.7.203-.7.483 0 .28.252.504.7.504a.864.864 0 0 0 .819-.56v.014ZM172.424 300.391v1.554h-.357v-1.519c0-.567-.287-.861-.77-.861a.879.879 0 0 0-.678.277.864.864 0 0 0-.225.696v1.4h-.357v-1.519c0-.567-.287-.861-.777-.861a.871.871 0 0 0-.861.602.878.878 0 0 0-.035.371v1.4H168v-2.681h.35v.49a1.075 1.075 0 0 1 .98-.511.948.948 0 0 1 .952.567 1.173 1.173 0 0 1 1.064-.567 1.014 1.014 0 0 1 1.078 1.162ZM175.755 300.713h-2.24a1.01 1.01 0 0 0 .333.69.985.985 0 0 0 .724.248 1.062 1.062 0 0 0 .819-.35l.203.231a1.315 1.315 0 0 1-1.036.441 1.326 1.326 0 0 1-1.314-.853 1.323 1.323 0 0 1-.086-.547 1.306 1.306 0 0 1 .361-.962 1.3 1.3 0 0 1 .948-.396 1.273 1.273 0 0 1 1.302 1.358c-.007.063-.014.105-.014.14Zm-2.24-.266h1.904a.947.947 0 0 0-.959-.896.933.933 0 0 0-.945.896ZM176.134 301.637l.161-.28c.278.197.611.302.952.301.511 0 .7-.175.7-.441 0-.7-1.736-.147-1.736-1.211 0-.441.378-.763 1.057-.763a1.82 1.82 0 0 1 .952.252l-.161.287a1.399 1.399 0 0 0-.791-.231c-.483 0-.7.189-.7.448 0 .7 1.743.175 1.743 1.204 0 .469-.406.77-1.106.77a1.772 1.772 0 0 1-1.071-.336ZM178.626 301.637l.168-.28c.277.199.611.305.952.301.511 0 .7-.175.7-.441 0-.7-1.743-.147-1.743-1.211 0-.441.378-.763 1.064-.763.332-.005.659.083.945.252l-.154.287a1.399 1.399 0 0 0-.791-.231c-.49 0-.7.189-.7.448 0 .7 1.736.175 1.736 1.204 0 .469-.406.77-1.106.77a1.801 1.801 0 0 1-1.071-.336ZM183.518 300.3v1.659h-.343v-.42a1.008 1.008 0 0 1-.924.448c-.609 0-.98-.315-.98-.784 0-.469.266-.756 1.036-.756h.847v-.147c0-.455-.259-.7-.756-.7a1.4 1.4 0 0 0-.896.315l-.161-.266a1.695 1.695 0 0 1 1.092-.364.956.956 0 0 1 .787.247.947.947 0 0 1 .298.768Zm-.364.854v-.441h-.84c-.518 0-.7.203-.7.483 0 .28.245.504.7.504a.852.852 0 0 0 .84-.56v.014ZM186.998 299.264v2.352a1.18 1.18 0 0 1-.793 1.298 1.18 1.18 0 0 1-.544.046 1.873 1.873 0 0 1-1.253-.413l.182-.273c.299.241.673.37 1.057.364.7 0 .987-.308.987-.973v-.343a1.198 1.198 0 0 1-1.043.518 1.31 1.31 0 0 1-.982-.345 1.296 1.296 0 0 1-.416-.954 1.293 1.293 0 0 1 .416-.953 1.294 1.294 0 0 1 .982-.345 1.214 1.214 0 0 1 1.064.532v-.511h.343Zm-.35 1.274a1.021 1.021 0 1 0-1.022.987.958.958 0 0 0 1.022-.987ZM190.35 300.713h-2.247a.992.992 0 0 0 1.057.938 1.075 1.075 0 0 0 .826-.35l.203.231a1.4 1.4 0 0 1-2.443-.931 1.286 1.286 0 0 1 1.309-1.358 1.273 1.273 0 0 1 1.302 1.358c0 .035-.007.077-.007.112Zm-2.247-.266h1.904a.95.95 0 0 0-.952-.952.95.95 0 0 0-.952.952ZM190.861 301.7a.274.274 0 0 1 .273-.273.272.272 0 1 1-.273.273ZM191.939 301.7a.273.273 0 1 1 .547 0 .273.273 0 0 1-.547 0ZM193.024 301.7a.273.273 0 1 1 .547 0 .273.273 0 0 1-.547 0Z"/><path fill="#FB94FF" d="M133.776 303.1a1.414 1.414 0 1 1-2.17-1.813l2.926-3.5a.915.915 0 0 1 1.226-.046.919.919 0 0 1 .174 1.215l-2.485 2.975a.519.519 0 0 1-.777-.658l1.911-2.296-.266-.217-1.82 2.191-.091.105a.844.844 0 0 0-.11.579.844.844 0 0 0 .849.706.842.842 0 0 0 .549-.214l.049-.056.042-.042 2.415-2.898a1.252 1.252 0 0 0-.164-1.768 1.257 1.257 0 0 0-1.768.165l-3.052 3.661a1.758 1.758 0 0 0 2.681 2.24l2.464-2.954-.266-.217-2.317 2.842ZM167.58 268.52a1.689 1.689 0 0 0-1.225.518 1.698 1.698 0 0 0-1.854-.39 1.701 1.701 0 0 0-1.065 1.566c0 1.512 2.919 3.339 2.919 3.339s2.919-1.827 2.919-3.339a1.695 1.695 0 0 0-1.694-1.694ZM160.062 268.52a1.693 1.693 0 0 0-1.225.518 1.669 1.669 0 0 0-1.218-.518 1.684 1.684 0 0 0-1.202.494 1.68 1.68 0 0 0-.499 1.2c0 1.512 2.919 3.339 2.919 3.339s2.926-1.827 2.926-3.339a1.687 1.687 0 0 0-.499-1.2 1.682 1.682 0 0 0-1.202-.494Z"/><g fill="#fff" opacity=".4"><path d="M167.58 268.52a1.689 1.689 0 0 0-1.225.518 1.698 1.698 0 0 0-1.854-.39 1.701 1.701 0 0 0-1.065 1.566c0 1.512 2.919 3.339 2.919 3.339s2.919-1.827 2.919-3.339a1.695 1.695 0 0 0-1.694-1.694ZM160.062 268.52a1.693 1.693 0 0 0-1.225.518 1.669 1.669 0 0 0-1.218-.518 1.684 1.684 0 0 0-1.202.494 1.68 1.68 0 0 0-.499 1.2c0 1.512 2.919 3.339 2.919 3.339s2.926-1.827 2.926-3.339a1.687 1.687 0 0 0-.499-1.2 1.682 1.682 0 0 0-1.202-.494Z"/></g><path fill="#AFC2FF" d="M161 243.18h-.553l-1.169-1.715v-1.106s-.854-.077-.791 1.4c.063 1.477-.035 1.085-.035 1.085a9.06 9.06 0 0 0-1.981.112c-.16.958-.244 1.927-.252 2.898a1.06 1.06 0 0 0 .7 1.092.715.715 0 0 0 .196 0c.455 0 2.8-.294 2.8-.294h.959l.126-3.472ZM162.581 242.921l-.441 3.787-.952-.028.098-3.717 1.295-.042ZM170.485 243.18h-.553l-1.169-1.715v-1.106s-.854-.077-.791 1.4c.063 1.477-.035 1.085-.035 1.085a9 9 0 0 0-1.974.112c-.163.958-.25 1.927-.259 2.898a1.068 1.068 0 0 0 .7 1.092.586.586 0 0 0 .196 0c.455 0 2.8-.294 2.8-.294h.959l.126-3.472ZM172.08 242.921l-.441 3.787-.945-.028.098-3.717 1.288-.042Z"/><path fill="#263238" d="M156.239 235.011h.7v3.192h-.7v-3.192ZM159.788 237.237h-1.75a.618.618 0 0 0 .665.462.782.782 0 0 0 .581-.224l.357.392a1.212 1.212 0 0 1-.959.371 1.195 1.195 0 0 1-1.316-1.19 1.166 1.166 0 0 1 .357-.866 1.178 1.178 0 0 1 .875-.331 1.157 1.157 0 0 1 1.129.734c.058.15.083.31.075.47a1.575 1.575 0 0 1-.014.182Zm-1.757-.392h1.141a.577.577 0 0 0-.57-.471.58.58 0 0 0-.571.471ZM162.504 235.9l-.973 2.317h-.7l-.966-2.317h.7l.637 1.575.665-1.575h.637ZM162.693 235.2a.386.386 0 0 1 .265-.358.39.39 0 0 1 .155-.02.37.37 0 0 1 .29.09.364.364 0 0 1 .13.274.42.42 0 0 1-.84 0v.014Zm.084.7h.7v2.317h-.7V235.9ZM164.072 235.011h.7v3.192h-.7v-3.192ZM165.06 238.203h2.149v.392h-2.149v-.392ZM167.3 238.945l.182-.483a.536.536 0 0 0 .287.077c.168 0 .273-.105.273-.336V235.9h.7v2.317a.792.792 0 0 1-.875.868.998.998 0 0 1-.567-.14Zm.658-3.752a.392.392 0 0 1 .127-.281.381.381 0 0 1 .293-.097.379.379 0 0 1 .42.364.42.42 0 0 1-.84 0v.014ZM171.66 235.9v2.317h-.637v-.273a.988.988 0 0 1-1.541-.141 1.001 1.001 0 0 1-.167-.559V235.9h.7v1.211c0 .385.168.56.469.56.301 0 .532-.196.532-.623V235.9h.644ZM172.283 235.011h.7v3.192h-.7v-3.192ZM173.494 235.2a.393.393 0 0 1 .128-.281.386.386 0 0 1 .292-.097.374.374 0 0 1 .285.093.378.378 0 0 1 .128.271.42.42 0 0 1-.833 0v.014Zm.084.7h.7v2.317h-.7V235.9ZM176.918 236.88v1.323h-.623v-.287a.771.771 0 0 1-.7.322c-.546 0-.868-.301-.868-.7 0-.399.287-.7.994-.7h.532c0-.287-.168-.455-.532-.455-.252-.013-.5.064-.7.217l-.245-.476c.3-.187.647-.284 1.001-.28.735.007 1.141.336 1.141 1.036Zm-.7.595v-.238h-.455c-.315 0-.413.112-.413.273 0 .161.14.28.378.28a.491.491 0 0 0 .518-.315h-.028ZM156.219 265.454l.385-.462a.7.7 0 0 0 .56.329c.28 0 .427-.168.427-.497v-1.435h-1.064v-.56h1.757v1.953a.973.973 0 0 1-1.085 1.113 1.194 1.194 0 0 1-.98-.441ZM158.745 264.684a1.278 1.278 0 0 1 .73-1.23 1.276 1.276 0 0 1 1.265 2.202c-.21.145-.459.223-.714.225a1.202 1.202 0 0 1-1.182-.719 1.21 1.21 0 0 1-.099-.478Zm1.869 0a.585.585 0 0 0-.348-.608.599.599 0 0 0-.835.608.592.592 0 0 0 .149.462.6.6 0 0 0 .443.197.599.599 0 0 0 .443-.197.585.585 0 0 0 .148-.462ZM164.108 264.516v1.33h-.7V264.6c0-.371-.175-.546-.469-.546s-.553.196-.553.623v1.148h-.7v-3.199h.7v1.12a.992.992 0 0 1 .7-.273.907.907 0 0 1 .993.623.92.92 0 0 1 .029.42ZM167.075 264.516v1.33h-.7V264.6c0-.371-.175-.546-.476-.546s-.553.196-.553.623v1.148h-.7v-2.317h.644v.273a.992.992 0 0 1 .763-.308.907.907 0 0 1 .993.623c.043.136.053.28.029.42ZM167.377 265.846h2.149v.385h-2.149v-.385ZM170.799 262.829v3.017h-.7v-2.457h-.602v-.56h1.302ZM173.6 265.3v.567h-2.275v-.455l1.162-1.099c.266-.252.315-.406.315-.553 0-.147-.168-.378-.483-.378a.734.734 0 0 0-.623.308l-.511-.329a1.397 1.397 0 0 1 1.197-.56c.7 0 1.12.343 1.12.889a1.214 1.214 0 0 1-.504.952l-.7.658h1.302ZM167.579 268.52a.88.88 0 0 1 .56 0 1.732 1.732 0 0 1 1.148 1.05c.135.364.135.763 0 1.127a3.485 3.485 0 0 1-.658 1.099 10.379 10.379 0 0 1-2.212 1.883l-.098.063-.091-.063c-.391-.249-.767-.52-1.127-.812a6.894 6.894 0 0 1-1.54-1.652 2.143 2.143 0 0 1-.329-1.057c.009-.355.118-.699.315-.994a1.845 1.845 0 0 1 1.575-.805 1.77 1.77 0 0 1 1.267.581h-.14a1.64 1.64 0 0 1 .931-.462.97.97 0 0 1 .364 0 2.86 2.86 0 0 1-.343.084 1.742 1.742 0 0 0-.812.504l-.063.07-.077-.07a1.601 1.601 0 0 0-1.869-.27 1.567 1.567 0 0 0-.567.515 1.532 1.532 0 0 0-.245.826c.023.31.125.608.294.868.404.591.9 1.114 1.47 1.547.347.284.709.548 1.085.791h-.189a10.743 10.743 0 0 0 2.163-1.778c.264-.291.477-.625.63-.987a1.39 1.39 0 0 0 0-.952 1.654 1.654 0 0 0-.966-1.015c-.28-.07-.476-.063-.476-.091ZM160.062 268.52a.901.901 0 0 1 .567 0 1.73 1.73 0 0 1 1.141 1.05c.146.359.158.759.035 1.127a3.38 3.38 0 0 1-.658 1.099 10.404 10.404 0 0 1-2.212 1.883l-.091.063-.098-.063c-.391-.249-.767-.52-1.127-.812a6.713 6.713 0 0 1-1.533-1.652 2.095 2.095 0 0 1-.336-1.057 1.827 1.827 0 0 1 1.184-1.681 1.844 1.844 0 0 1 1.405.044c.218.1.413.242.575.419h-.147a1.64 1.64 0 0 1 .931-.462.97.97 0 0 1 .364 0 2.907 2.907 0 0 1-.343.084c-.311.088-.59.263-.805.504l-.07.07-.077-.07a1.601 1.601 0 0 0-1.729-.335 1.535 1.535 0 0 0-.938 1.469c.016.311.118.611.294.868a6.616 6.616 0 0 0 1.463 1.547c.346.284.709.548 1.085.791h-.189a10.799 10.799 0 0 0 2.163-1.778c.266-.289.48-.624.63-.987a1.402 1.402 0 0 0 0-.952 1.663 1.663 0 0 0-.369-.612 1.651 1.651 0 0 0-.59-.403c-.287-.133-.525-.126-.525-.154Z"/><path fill="#E0E0E0" d="M148.212 246.53c4.567-4.568 4.567-11.974 0-16.542-4.568-4.568-11.975-4.568-16.543 0-4.567 4.568-4.568 11.974 0 16.542 4.568 4.568 11.975 4.568 16.543 0Z"/><path fill="#AFC2FF" d="M133.056 239.211a2.007 2.007 0 0 0-.455 1.134 6.747 6.747 0 0 0 0 1.239 30.692 30.692 0 0 1 0 5.145 4.657 4.657 0 0 0 1.981-2.898 7.885 7.885 0 0 0-.077-3.57 1.954 1.954 0 0 0-.392-.917.767.767 0 0 0-.91-.224"/><path fill="#263238" d="M135.001 235.081a1.534 1.534 0 0 0 .091-1.512 2.302 2.302 0 0 0-1.134-1.064 3.129 3.129 0 0 0-3.836 1.162 1.276 1.276 0 0 0 0 1.533c.161.154.399.273.427.497.028.224-.161.392-.322.553a2.101 2.101 0 0 0 1.505 3.563c1.134 0 2.1-.903 3.227-1.008"/><path fill="#AFC2FF" d="M133.615 234.878c-.749 1.358-1.19 3.5-.301 4.949l.77-.14c.7-1.771.994-4.137 1.596-5.929a2.8 2.8 0 0 0-2.065 1.12Z"/><path fill="#263238" d="M134.995 233.968c0-.602.539-1.064 1.099-1.288a8.083 8.083 0 0 0 1.68-.637 8.273 8.273 0 0 0 1.12-1.141 3.7 3.7 0 0 1 5.284.009c.46.47.786 1.054.946 1.692a2.424 2.424 0 0 1-.609 2.436c-.784.7-1.946.518-2.947.308-1.001-.21-2.142-.406-2.982.182a4.262 4.262 0 0 0-1.106 1.47 2.635 2.635 0 0 1-1.281 1.288c-.588.196-1.4-.147-1.4-.77"/><path fill="#263238" d="M135.037 234.297a1.697 1.697 0 0 1-.665 1.316c-.408.31-.703.746-.84 1.239-.07.588.357 1.169.231 1.75a4.282 4.282 0 0 1-.539.987 2.098 2.098 0 0 0-.105 1.547c.136.714.387 1.402.742 2.037a8.131 8.131 0 0 0 3.955 2.359c1.439.288 2.912.371 4.375.245 1.197-.077 2.576 0 3.57-1.666a12.3 12.3 0 0 0 1.05-2.947c.3-.81.368-1.688.196-2.534-.147-.476-.434-.903-.574-1.4a10.867 10.867 0 0 1-.182-1.862 4.248 4.248 0 0 0-.691-1.888 4.266 4.266 0 0 0-5.385-1.479"/><path fill="#A36957" d="M145.677 236.369c-.112-1.722-1.253-3.822-2.968-3.64l-5.341 1.365a.998.998 0 0 0-.896 1.022l.343 11.732a3.1 3.1 0 0 0 3.164 3.01 3.107 3.107 0 0 0 3.031-3.094v-1.498s2.198-.371 2.646-3.234c.184-1.883.191-3.779.021-5.663Z"/><path fill="#263238" d="M144.724 238.364a.354.354 0 0 1-.101.259.369.369 0 0 1-.256.112.346.346 0 0 1-.26-.082.347.347 0 0 1-.118-.247.371.371 0 0 1 .35-.371.364.364 0 0 1 .261.084.353.353 0 0 1 .124.245ZM145.172 237.58c-.049.049-.322-.154-.7-.154-.378 0-.7.203-.7.154 0-.049 0-.112.154-.203.171-.118.374-.182.581-.182a.977.977 0 0 1 .574.189c.07.091.112.175.091.196ZM140.93 238.322a.37.37 0 0 1-.35.371.364.364 0 0 1-.261-.084.368.368 0 0 1-.124-.245.373.373 0 0 1 .025-.14.375.375 0 0 1 .194-.201.364.364 0 0 1 .138-.03.344.344 0 0 1 .378.329ZM141.288 237.664c-.049.049-.322-.154-.7-.154-.378 0-.7.203-.7.154 0-.049 0-.112.154-.203a1.02 1.02 0 0 1 .581-.182.986.986 0 0 1 .574.182c.07.098.112.182.091.203ZM142.73 240.59c.207-.062.421-.1.637-.112.105 0 .196-.035.217-.105a.53.53 0 0 0-.07-.294c-.091-.245-.196-.504-.301-.77a13.73 13.73 0 0 1-.7-2.009c.329.625.608 1.276.833 1.946.098.273.196.532.287.777.065.12.085.259.056.392a.282.282 0 0 1-.168.154h-.168a2.323 2.323 0 0 1-.623.021Z"/><path fill="#7A4534" d="M143.01 245.266a7.235 7.235 0 0 1-3.836-1.015s.938 1.967 3.801 1.694l.035-.679Z"/><path fill="#FB94FF" d="M142.562 241.542a.699.699 0 0 0-.637-.259.654.654 0 0 0-.448.238.416.416 0 0 0 0 .476.473.473 0 0 0 .518.126c.187-.064.359-.166.504-.301a.47.47 0 0 0 .112-.119.147.147 0 0 0 .021-.073.148.148 0 0 0-.021-.074"/><path fill="#263238" d="M141.568 240.87c.063 0 .063.42.434.7.371.28.819.252.826.315.007.063-.105.084-.294.091a1.063 1.063 0 0 1-.7-.245.913.913 0 0 1-.336-.609c-.007-.147.042-.259.07-.252ZM141.399 236.509c-.042.105-.434.056-.903.112-.469.056-.833.182-.896.091-.063-.091.035-.147.189-.252a1.545 1.545 0 0 1 1.365-.154c.161.063.245.154.245.203ZM145.025 236.439c-.07.091-.343 0-.7 0-.357 0-.602.063-.665 0-.063-.063 0-.14.133-.224a.943.943 0 0 1 .546-.147.925.925 0 0 1 .532.175c.147.063.182.154.154.196Z"/><path fill="#263238" d="M135.365 243.509a2.552 2.552 0 0 0 2.23-.627c.296-.273.523-.612.662-.99s.187-.783.139-1.183c-.091-.7-.469-1.4-.231-2.1.329-.882 1.561-1.148 1.883-2.03.196-.511 0-1.106.238-1.603a1.91 1.91 0 0 1 1.183-.917c.495-.13.968-.336 1.4-.609a1.103 1.103 0 0 0 .392-1.351 27.45 27.45 0 0 0-6.251 1.519c-.477.139-.9.423-1.211.812a2.572 2.572 0 0 0-.252 1.533l.357 7.7"/><path fill="#AFC2FF" d="M135.547 244.496h-.049l-.126-.098a9.979 9.979 0 0 1-.476-.392 6.089 6.089 0 0 1-.7-.7 2.64 2.64 0 0 1-.532-1.183 1.803 1.803 0 0 1 .371-1.505 5.89 5.89 0 0 1 .665-.567c.236-.179.415-.422.518-.7.135-.64.204-1.292.203-1.946a3.88 3.88 0 0 1 .812-1.974c.229-.291.518-.53.847-.7a5.213 5.213 0 0 1 1.001-.343c.321-.077.622-.223.882-.427a3.53 3.53 0 0 0 .637-.7c.357-.511.623-1.057.966-1.512.165-.22.355-.42.567-.595.209-.163.446-.287.7-.364a1.396 1.396 0 0 1 1.274.126 1.184 1.184 0 0 1 .455.854.912.912 0 0 1-.175.595.55.55 0 0 1-.119.112h-.042l.035-.042a.627.627 0 0 0 .105-.119.86.86 0 0 0 .133-.616 1.135 1.135 0 0 0-.448-.805 1.399 1.399 0 0 0-1.204-.098 2.103 2.103 0 0 0-.63.357 3.1 3.1 0 0 0-.546.581c-.329.448-.588.994-.959 1.519a3.58 3.58 0 0 1-.658.7 2.395 2.395 0 0 1-.917.455c-.337.077-.666.19-.98.336a2.524 2.524 0 0 0-.805.658 3.766 3.766 0 0 0-.791 1.911 9.156 9.156 0 0 1-.21 1.974 1.69 1.69 0 0 1-.56.756 5.264 5.264 0 0 0-.658.553 1.687 1.687 0 0 0-.364 1.4c.073.42.246.816.504 1.155.197.251.415.485.651.7.196.182.357.315.462.406.06.075.114.154.161.238ZM132.957 239.4a2.81 2.81 0 0 0-1.729 1.827 13.254 13.254 0 0 1-.952 2.429 2.366 2.366 0 0 0 1.687-.567c.338-.2.631-.467.861-.784.553-.875.105-2.065.448-3.045"/><path fill="#FAFAFA" d="M133.574 238.952a2.058 2.058 0 0 1-.385-.238 1.68 1.68 0 0 1-.357-.294c.142.059.274.139.392.238.131.08.249.179.35.294ZM133.658 238.056a2.435 2.435 0 0 1-.427-.35 2.232 2.232 0 0 1-.385-.392c.156.096.299.211.427.343.141.12.27.254.385.399ZM133.567 236.6s-.126-.07-.252-.182c-.126-.112-.217-.21-.203-.224.014-.014.119.063.245.175a.857.857 0 0 1 .21.231ZM134.28 235.662a1.195 1.195 0 0 1-.364-.315 1.405 1.405 0 0 1-.259-.399l.308.357c.115.11.22.23.315.357ZM134.973 234.899a1.89 1.89 0 0 1-.343-.301 2.092 2.092 0 0 1-.301-.35c.127.087.245.188.35.301.114.102.213.22.294.35Z"/><path fill="#263238" d="M132.678 246.61a.817.817 0 0 0 0-.07v-3.458c0-.49 0-.952.035-1.4.02-.375.059-.749.119-1.12a5.88 5.88 0 0 1 .175-.742c.019-.064.043-.128.07-.189v-.07s0 .098-.07.266a6.47 6.47 0 0 0-.154.742c-.058.369-.093.74-.105 1.113v1.4c0 .973 0 1.848-.042 2.499V246.54a.25.25 0 0 1-.028.07Z"/><path fill="#FAFAFA" d="M133.784 245.651a3.446 3.446 0 0 1-.574-.525 3.264 3.264 0 0 1-.49-.609s.245.252.539.56c.294.308.532.56.525.574ZM134.463 244.342l-.287-.245c-.175-.161-.413-.378-.651-.637a3.674 3.674 0 0 1-.539-.742 2.806 2.806 0 0 1-.126-.245c-.028-.063-.035-.098 0-.098s.07.126.189.322c.162.248.344.482.546.7.238.259.476.476.637.644.088.091.166.192.231.301ZM131.6 243.32s-.056-.077-.112-.224a5.21 5.21 0 0 1-.21-.567 7.51 7.51 0 0 1-.154-.581 1.187 1.187 0 0 1-.035-.245l.252.812c.14.448.259.798.259.805ZM132.46 242.606s-.175-.539-.35-1.218c-.175-.679-.301-1.239-.287-1.239.141.399.258.805.35 1.218.175.679.301 1.232.287 1.239ZM132.803 240.219a.644.644 0 0 1-.168-.28.832.832 0 0 1-.056-.308c0 .042.056.154.105.287.048.097.087.198.119.301Z"/><path fill="#AFC2FF" d="m133.252 247.856 3.563-1.008 6.195-.084 3.941.854a10.87 10.87 0 0 1-7 2.331c-4.354-.049-6.699-2.093-6.699-2.093Z"/><path fill="#E0E0E0" d="M150.803 268.013c.976-6.378-3.403-12.34-9.782-13.316-6.378-.976-12.339 3.403-13.315 9.782-.976 6.378 3.403 12.339 9.781 13.315 6.378.976 12.34-3.403 13.316-9.781Z"/><path fill="#FFBE9D" d="M138.894 277.487a3.41 3.41 0 0 1-3.731-3.059l-1.029-10.332a4.979 4.979 0 0 1 4.585-5.481h.077a5.201 5.201 0 0 1 3.561 1.322 5.204 5.204 0 0 1 1.717 3.389c.231 2.373.448 4.949.455 6.216 0 2.695-2.674 3.157-2.674 3.157s.042.441.105 1.057a3.424 3.424 0 0 1-3.066 3.731Z"/><path fill="#EB996E" d="M141.854 272.699a6.538 6.538 0 0 1-3.5-.98 3.419 3.419 0 0 0 3.591 1.631l-.091-.651Z"/><path fill="#263238" d="M143.009 265.132a.382.382 0 0 1-.1.271.38.38 0 0 1-.264.121.347.347 0 0 1-.143-.015.366.366 0 0 1-.256-.321.39.39 0 0 1 .101-.274.38.38 0 0 1 .263-.125.361.361 0 0 1 .399.343ZM143.5 264.467c-.049.056-.343-.161-.756-.147-.413.014-.7.217-.756.168-.056-.049 0-.112.154-.21a1.05 1.05 0 0 1 1.211 0c.147.077.147.168.147.189ZM139.061 265.3a.387.387 0 0 1-.364.392.374.374 0 0 1-.365-.196.365.365 0 0 1-.041-.14.394.394 0 0 1 .639-.313.372.372 0 0 1 .131.257ZM139.433 264.6c-.042.049-.343-.161-.756-.154-.413.007-.7.224-.756.168-.056-.056 0-.112.154-.21.177-.128.39-.197.609-.196a.969.969 0 0 1 .602.182c.126.112.175.21.147.21ZM140.987 267.659c.225-.08.461-.125.7-.133.105 0 .203-.035.217-.112a.52.52 0 0 0-.07-.308l-.329-.798a13.134 13.134 0 0 1-.735-2.1c.352.65.654 1.327.903 2.023.105.287.21.553.315.805a.592.592 0 0 1 .056.413.266.266 0 0 1-.168.161.922.922 0 0 1-.182 0 2.996 2.996 0 0 1-.707.049ZM139.775 267.96c.063 0 .07.448.462.763s.868.252.875.315c.007.063-.105.091-.308.098a1.139 1.139 0 0 1-.7-.238 1.007 1.007 0 0 1-.364-.637c-.049-.161 0-.301.035-.301ZM139.517 262.99c-.042.112-.455.063-.938.133-.483.07-.875.203-.945.105-.07-.098.042-.154.196-.266a1.63 1.63 0 0 1 1.435-.182c.175.07.266.154.252.21ZM143.332 263.27c-.077.098-.364 0-.7 0-.336 0-.63.07-.7 0-.07-.07 0-.147.14-.238a.959.959 0 0 1 .567-.161.949.949 0 0 1 .567.182c.112.077.154.147.126.217ZM137.01 261.1a2.104 2.104 0 0 0-.763 1.4v.056c-.098.77-.063 1.554-.161 2.317-.098.763 0 1.344-.749 1.589a1.006 1.006 0 0 1-1.092-.322.619.619 0 0 1-.098-.35c-.175-1.855-.623-2.534-.651-4.473a1.64 1.64 0 0 1 .658-1.344c.399-.294.896-.609 1.351-.399.455.21 1.05 1.036 1.4 1.4"/><path fill="#FFBE9D" d="M135.1 265.3c-.049 0-1.862-.518-1.771 1.323a1.394 1.394 0 0 0 .607 1.17 1.41 1.41 0 0 0 1.311.146c-.035-.056-.147-2.639-.147-2.639Z"/><path fill="#EB996E" d="m134.617 267.267-.084.056a.373.373 0 0 1-.238 0 .796.796 0 0 1-.406-.7c-.01-.157.013-.315.07-.462a.367.367 0 0 1 .231-.259.16.16 0 0 1 .108.005.158.158 0 0 1 .081.072v.091s.042-.035 0-.105a.182.182 0 0 0-.027-.064.207.207 0 0 0-.05-.048.266.266 0 0 0-.182-.042.475.475 0 0 0-.322.301 1.134 1.134 0 0 0-.084.518.844.844 0 0 0 .504.777.394.394 0 0 0 .294-.063c.105-.028.112-.07.105-.077Z"/><path fill="#263238" d="M135.421 259.847c-.462-.7.763-1.813 1.666-2.1.903-.287 2.1.126 3.017.406a4.97 4.97 0 0 0 1.743.406 4.192 4.192 0 0 0 1.162-.322 3.014 3.014 0 0 1 1.176-.252 1.119 1.119 0 0 1 .98.602.7.7 0 0 1-.448.945.9.9 0 0 1 1.167.249.903.903 0 0 1-.901 1.424c.259-.203.665.119.637.448a.965.965 0 0 1-.616.7 3.456 3.456 0 0 1-2.457 0c-.798-.252-1.547-.658-2.338-.931-.791-.273-2.1-.77-2.905-.476-.581.21-.973.924-1.302.77a1.09 1.09 0 0 1-.595-.819 3.259 3.259 0 0 1 0-1.043"/><path fill="#AFC2FF" d="M144.935 259.462s-.091.14-.287.357a2.488 2.488 0 0 1-1.008.7 2.357 2.357 0 0 1-1.757-.042 8.327 8.327 0 0 1-1.799-1.344 3.851 3.851 0 0 0-2.1-.959 2.09 2.09 0 0 0-1.75.637 1.571 1.571 0 0 0-.399 1.197c.01.116.039.229.084.336.037.079.058.114.063.105a2.53 2.53 0 0 1-.077-.448 1.54 1.54 0 0 1 .42-1.099 1.995 1.995 0 0 1 1.645-.56 3.7 3.7 0 0 1 1.981.931c.547.539 1.17.996 1.848 1.358a2.433 2.433 0 0 0 1.869 0 2.46 2.46 0 0 0 1.022-.749c.073-.091.136-.19.189-.294.021-.084.063-.119.056-.126ZM134.596 265.223s.077-.049.14-.196c.094-.221.123-.463.084-.7-.049-.588-.588-1.218-.665-2.037a1.825 1.825 0 0 1 .182-1.099c.158-.274.405-.486.7-.602.19-.087.401-.121.609-.098.154 0 .231.056.238.042.007-.014-.07-.063-.224-.112a1.148 1.148 0 0 0-.7.042 1.482 1.482 0 0 0-.77.644 1.932 1.932 0 0 0-.224 1.204c.053.404.179.795.371 1.155a3.5 3.5 0 0 1 .35.882c.064.294.032.601-.091.875Z"/><path fill="#FB94FF" d="m132.579 275.835 2.548-1.736c2.849.777 5.215.763 6.832-.343l4.298 1.841a10.834 10.834 0 0 1-7 2.331c-4.34-.07-6.678-2.093-6.678-2.093Z"/><path fill="#E0E0E0" d="M149.11 81.681c6.017-6.016 6.017-15.772 0-21.788-6.017-6.017-15.772-6.017-21.789 0-6.017 6.016-6.017 15.772 0 21.788 6.017 6.017 15.772 6.017 21.789 0Z"/><path fill="#263238" d="M148.309 77.315c.189-1.253.84-2.394 1.036-3.64a9.582 9.582 0 0 0-.476-3.983c-.665-2.429-1.491-4.9-3.178-6.783-1.687-1.883-4.424-3.003-6.783-2.1l-2.492 2.163c-1.729.448-2.8 2.17-3.444 3.836-.644 1.666-1.085 3.5-2.296 4.802-.763.826-1.862 1.526-1.988 2.639-.126 1.113.7 2.226.196 3.164-.399.7-1.4.882-1.862 1.575-.462.693.301 2.709.301 2.709s5.019 6.657 16.1 3.801c3.01-.777 4.41-2.506 6.041-4.2a5.08 5.08 0 0 1-1.155-3.983Z"/><path fill="#FB94FF" d="m129.366 83.538 5.089-1.477 8.4-.434 5.117 1.204s-2.562 3.633-10.199 3.346c-4.9-.182-6.776-1.652-6.776-1.652"/><path fill="#AFC2FF" d="M132.832 61.887a6.45 6.45 0 0 1 4.697-2.296 9.623 9.623 0 0 1 7.119 2.1 8.698 8.698 0 0 1 2.688 6.188 5.825 5.825 0 0 1-.553 2.331 4.27 4.27 0 0 1-1.995 2.009c-.749.322-1.036.056-1.603-.532a3.676 3.676 0 0 1-.7-1.309 18.278 18.278 0 0 0-2.926-5.6 7.822 7.822 0 0 0-5.39-2.947"/><path fill="#263238" d="M131.502 66.297a5.038 5.038 0 0 1 1.33-4.41 6.614 6.614 0 0 1 3.15-1.666 7.063 7.063 0 0 1 4.739.35 4.601 4.601 0 0 1 2.674 3.759 9.913 9.913 0 0 0 .105 2.17c.134.29.183.614.14.931a.767.767 0 0 1-.7.462 1.721 1.721 0 0 1-.84-.21 9.159 9.159 0 0 1-2.317-1.848"/><path fill="#FFBE9D" d="m142.583 64.61-7-2.156c-2.247-.357-3.899 2.352-4.165 4.62a40.595 40.595 0 0 0-.35 7.497c.406 3.815 3.283 4.452 3.283 4.452v1.953a4.19 4.19 0 0 0 1.586 3.337 4.2 4.2 0 0 0 3.608.793l.175-.056a4.203 4.203 0 0 0 2.975-3.745l1.008-15.281a1.344 1.344 0 0 0-1.12-1.414Z"/><path fill="#263238" d="M132.565 69.594a.492.492 0 0 0 .441.518.473.473 0 0 0 .469-.237.474.474 0 0 0 .056-.176.486.486 0 0 0-.441-.518.464.464 0 0 0-.525.413ZM132.026 68.712c.056.07.441-.189.959-.154s.896.308.952.245c.056-.063 0-.147-.182-.273a1.343 1.343 0 0 0-1.533-.077c-.168.147-.224.231-.196.259ZM137.857 70a.492.492 0 0 0 .441.518.461.461 0 0 0 .525-.413.483.483 0 0 0-.441-.511.461.461 0 0 0-.525.406ZM137.157 69.076c.056.07.441-.182.959-.154.518.028.896.308.952.252.056-.056 0-.147-.182-.28a1.397 1.397 0 0 0-.763-.273c-.27-.02-.539.051-.763.203-.161.112-.231.224-.203.252ZM135.058 72.856a3.293 3.293 0 0 0-.84-.196c-.133 0-.259-.056-.273-.147a.695.695 0 0 1 .105-.392c.147-.315.294-.651.448-.994.409-.843.753-1.716 1.029-2.611a17.602 17.602 0 0 0-1.232 2.52c-.154.35-.301.7-.434 1.001a.815.815 0 0 0-.098.525.333.333 0 0 0 .21.203.7.7 0 0 0 .224.042c.284.05.573.067.861.049Z"/><path fill="#EB996E" d="M134.4 79.023a9.71 9.71 0 0 0 5.145-1.085s-1.4 2.632-5.152 2.1l.007-1.015ZM135.211 74.13a.943.943 0 0 1 .861-.308.833.833 0 0 1 .581.35.543.543 0 0 1 0 .623.62.62 0 0 1-.7.14 2.012 2.012 0 0 1-.651-.434.798.798 0 0 1-.14-.161.188.188 0 0 1 0-.196"/><path fill="#263238" d="M136.576 73.297c-.084 0-.112.56-.623.938-.511.378-1.106.28-1.113.364-.007.084.126.112.385.133a1.4 1.4 0 0 0 .924-.266 1.26 1.26 0 0 0 .49-.791c.035-.231-.021-.378-.063-.378ZM137.151 67.494c.049.147.574.105 1.183.21.609.105 1.092.301 1.183.175.091-.126-.042-.196-.231-.343a2.071 2.071 0 0 0-1.799-.294c-.231.077-.35.182-.336.252ZM132.3 66.437c.084.119.448 0 .882 0s.798.119.889 0c.091-.119 0-.182-.168-.301a1.247 1.247 0 0 0-.7-.231 1.176 1.176 0 0 0-.7.203c-.203.147-.245.266-.203.329Z"/><path fill="#FFBE9D" d="M142.296 72.317c0-.287.378-.931.658-.959.749-.077 2.1.049 2.002 1.939-.119 2.583-2.688 1.932-2.688 1.862 0-.07-.028-1.869.028-2.842Z"/><path fill="#EB996E" d="M143.1 74.2s.042 0 .119.07a.406.406 0 0 0 .336 0 1.105 1.105 0 0 0 .56-.973 1.506 1.506 0 0 0-.098-.651.51.51 0 0 0-.322-.357.222.222 0 0 0-.157.005.229.229 0 0 0-.116.107v.126c0 .007-.056-.049 0-.154a.271.271 0 0 1 .105-.154.35.35 0 0 1 .252-.056.626.626 0 0 1 .455.42c.093.221.136.46.126.7a1.17 1.17 0 0 1-.7 1.085.473.473 0 0 1-.406-.084c-.154-.007-.161-.084-.154-.084Z"/><path fill="#263238" d="M135.274 61.992a3.506 3.506 0 0 0 2.198 2.863c.63.245 1.4.357 1.75.938.35.581.063 1.4.385 2.016.448.84 1.834.903 2.149 1.806.14.399 0 .847.161 1.239a1.19 1.19 0 0 0 1.4.651 1.88 1.88 0 0 0 1.204-1.071c.222-.513.355-1.06.392-1.617a9.019 9.019 0 0 0-.035-3.276c-.539-2.233-3.5-5.474-5.782-5.481"/><path fill="#AFC2FF" d="M139.607 61.194a5.736 5.736 0 0 0-4.2 1.848c.101-.215.244-.408.42-.567a4.559 4.559 0 0 1 3.052-1.351c.245-.032.494-.008.728.07ZM136.738 60.9a4.19 4.19 0 0 0-.938.861 4.312 4.312 0 0 0-.49 1.211s-.056-.154 0-.406c.043-.33.166-.645.357-.917.181-.27.42-.494.7-.658.21-.091.364-.14.371-.091Z"/><path fill="#263238" d="M333.774 336.434c0 .098-69.79.182-155.862.182-86.072 0-155.883-.084-155.883-.182 0-.098 69.776-.182 155.883-.182 86.107 0 155.862.084 155.862.182Z"/><path fill="#FB94FF" d="M90.426 280.595c.763-2.646 2.4-5.201 4.9-6.3 2.632-1.134 5.677-.49 8.365.49 2.688.98 5.334 2.282 8.197 2.464 2.863.182 6.083-1.183 6.937-3.913.805-2.569-.742-5.313-2.681-7.175a16.942 16.942 0 0 0-23.125-.348 16.934 16.934 0 0 0-4.63 7.005"/><path fill="#232121" d="M90.426 280.595c.763-2.646 2.4-5.201 4.9-6.3 2.632-1.134 5.677-.49 8.365.49 2.688.98 5.334 2.282 8.197 2.464 2.863.182 6.083-1.183 6.937-3.913.805-2.569-.742-5.313-2.681-7.175a16.942 16.942 0 0 0-23.125-.348 16.934 16.934 0 0 0-4.63 7.005" opacity=".5"/><path fill="#FB94FF" d="M67.78 292.075c-4.2-3.983-3.982-10.92-1.89-16.31 2.094-5.39 6.658-9.534 11.754-12.264a37.227 37.227 0 0 1 32.452-1.05 15.404 15.404 0 0 0-12.453 7.308c-2.296 3.822-2.8 8.449-4.704 12.481a19.647 19.647 0 0 1-25.158 9.835ZM65.8 268.142c-4.64-5.481-5.257-14.28-4.578-21.427.68-7.147 2.345-14.35 1.218-21.441-.7-4.2-2.303-8.218-2.849-12.432-.546-4.214.224-8.995 3.5-11.718 3.752-3.129 9.674-2.394 13.58.546 3.906 2.94 6.174 7.56 7.833 12.159 3.633 10.115 4.97 21.322 1.981 31.647s-9.996 19.551-20.3 22.666"/><path fill="#263238" d="M63.54 313.103a3.622 3.622 0 0 1 0-.63c0-.413 0-1.022.034-1.806.063-1.575.21-3.85.567-6.643a86.901 86.901 0 0 1 1.785-9.716 44.7 44.7 0 0 1 4.431-11.256 46.773 46.773 0 0 1 7.252-9.688 46.061 46.061 0 0 1 7.595-6.3c1.162-.798 2.282-1.4 3.248-1.974.966-.574 1.855-.945 2.562-1.288l1.673-.7c.19-.091.386-.166.588-.224a3.71 3.71 0 0 1-.56.294l-1.659.728c-.7.364-1.547.805-2.52 1.344a33.452 33.452 0 0 0-3.199 2.009 47.779 47.779 0 0 0-14.7 15.974c-4.27 7.469-5.439 15.316-6.3 20.818-.385 2.8-.574 5.047-.7 6.615-.049.756-.084 1.358-.112 1.806.026.211.031.425.014.637Z"/><path fill="#FB94FF" d="M23.492 246.519c-8.589 5.187-8.56 9.905-7.126 14.357 1.435 4.452 6.706 7.546 11.074 5.88 2.471-.945 4.263-3.094 5.79-5.25 1.525-2.156 2.967-4.466 5.11-6.02 2.141-1.554 5.25-2.142 7.398-.609"/><path fill="#232121" d="M23.492 246.519c-8.589 5.187-8.56 9.905-7.126 14.357 1.435 4.452 6.706 7.546 11.074 5.88 2.471-.945 4.263-3.094 5.79-5.25 1.525-2.156 2.967-4.466 5.11-6.02 2.141-1.554 5.25-2.142 7.398-.609" opacity=".5"/><path fill="#FB94FF" d="M17.059 252.203c2.247-3.101 7.798-4.004 11.298-2.45 3.5 1.554 6.076 4.62 8.4 7.7 2.324 3.08 4.529 6.3 7.7 8.442 3.17 2.142 7.63 2.905 10.8.756a9.293 9.293 0 0 0 3.669-6.356c.28-2.507.11-5.043-.504-7.49-.763-3.598-1.995-7.364-4.9-9.653-3.213-2.548-7.7-2.674-11.774-2.534-4.704.154-9.478.504-13.895 2.135-4.417 1.631-8.925 5.152-10.801 9.471"/><path fill="#263238" d="M56.399 306.229a.658.658 0 0 1 0-.189v-.553c0-.518-.05-1.232-.077-2.135-.056-1.883-.133-4.557-.224-7.84a437.822 437.822 0 0 0-.476-11.62c-.238-4.368-.574-9.177-1.232-14.175a46.113 46.113 0 0 0-1.4-7.196 36.81 36.81 0 0 0-2.632-6.3 36.207 36.207 0 0 0-3.318-5.215 34.673 34.673 0 0 0-3.626-3.983 26.965 26.965 0 0 0-6.433-4.382c-.42-.189-.784-.378-1.113-.511l-.84-.329-.511-.203a.695.695 0 0 1-.217-.098.632.632 0 0 1 .182.042l.532.175.854.294c.336.119.7.301 1.134.483a25.575 25.575 0 0 1 6.552 4.319 34.387 34.387 0 0 1 3.696 3.983 36.32 36.32 0 0 1 3.38 5.243 37.269 37.269 0 0 1 2.682 6.356 45.777 45.777 0 0 1 1.442 7.259c.7 5.019.98 9.8 1.204 14.203.224 4.403.329 8.323.399 11.634s.09 5.992.098 7.847v2.66a.56.56 0 0 1-.056.231ZM59.5 310.1a24.456 24.456 0 0 1-.945-3.689 38.602 38.602 0 0 1-.392-10.36 68.314 68.314 0 0 1 3.276-15.036c1.757-5.53 4.151-11.438 6.195-17.794a82.4 82.4 0 0 0 2.471-9.408 85.97 85.97 0 0 0 1.218-8.981 131 131 0 0 0 .273-15.358c-.147-4.375-.385-7.91-.525-10.36-.07-1.204-.126-2.137-.168-2.8v-.735a1.08 1.08 0 0 1 0-.245c.023.08.037.162.042.245 0 .182.042.427.07.7.056.7.133 1.61.238 2.8.19 2.443.462 5.978.651 10.36a127.14 127.14 0 0 1-.196 15.4 81.282 81.282 0 0 1-1.204 9.023 80.926 80.926 0 0 1-2.464 9.457c-2.05 6.37-4.459 12.278-6.23 17.78a69.883 69.883 0 0 0-3.38 15.001 39.902 39.902 0 0 0 .265 10.318c.21 1.197.406 2.1.574 2.751.07.301.133.532.175.7.042.168.056.231.056.231Z"/><path fill="#AFC2FF" d="M80.787 313.992H40.453l-.924-7.763h41.258v7.763Z"/><path fill="#AFC2FF" d="m44.78 313.11 5.046 23.282h21.917l4.718-23.282H44.78Z"/><path fill="#AFC2FF" d="M80.787 313.992c0 .105-8.87.168-19.803.133-10.934-.035-19.81-.14-19.81-.245 0-.105 8.869-.168 19.81-.14 10.94.028 19.803.147 19.803.252Z"/><path fill="#263238" d="M73.864 325.5a16.365 16.365 0 0 0-3.556-2.037 12.73 12.73 0 0 0-4.32-.868c-1.812.004-3.61.333-5.305.973-1.841.623-3.556 1.351-5.23 1.743a12.486 12.486 0 0 1-4.514.14 9.515 9.515 0 0 1-2.905-.917 6.031 6.031 0 0 1-.7-.448c-.154-.112-.231-.175-.217-.189.014-.014.343.203.98.497.916.401 1.885.668 2.877.791 1.469.185 2.96.112 4.403-.217 1.61-.399 3.332-1.134 5.18-1.764a15.066 15.066 0 0 1 5.446-.959c1.517.045 3.013.373 4.41.966.94.393 1.826.908 2.632 1.533.217.169.424.349.623.539.14.119.203.217.196.217Z"/><path fill="#fff" d="M73.557 327.04a17.43 17.43 0 0 0-3.41-2.009 11.583 11.583 0 0 0-4.164-.854 14.75 14.75 0 0 0-5.138.924c-1.778.588-3.444 1.281-5.04 1.708a12.988 12.988 0 0 1-4.34.49 7.37 7.37 0 0 1-2.842-.763 5.792 5.792 0 0 1-.7-.427c-.147-.112-.224-.175-.21-.189.014-.014.329.196.952.483a7.76 7.76 0 0 0 2.8.623 13.18 13.18 0 0 0 4.2-.56c1.56-.434 3.213-1.134 5.012-1.736a14.952 14.952 0 0 1 5.264-.91c2.47.069 4.852.942 6.783 2.485.273.217.469.399.602.525.086.059.164.129.23.21Z"/><path fill="#fff" d="M74.263 323.939a19.478 19.478 0 0 0-3.647-2.149 13.585 13.585 0 0 0-4.43-1.064 14.4 14.4 0 0 0-5.475.966 49.646 49.646 0 0 1-5.41 1.771c-1.544.263-3.12.263-4.663 0a10.418 10.418 0 0 1-2.996-.952 5.397 5.397 0 0 1-.7-.448c-.16-.119-.238-.182-.23-.196.006-.014.356.21 1.021.511.95.404 1.952.677 2.975.812 1.514.221 3.053.193 4.557-.084a53.89 53.89 0 0 0 5.32-1.806 14.28 14.28 0 0 1 5.6-.952 13.586 13.586 0 0 1 7.21 2.8c.226.174.44.361.644.56.086.065.162.143.224.231Z"/><path fill="#263238" d="M80.5 314.118c0 .056-8.925.098-19.922.098s-19.978-.042-19.978-.098 8.918-.091 19.929-.091c11.01 0 19.97.042 19.97.091ZM88.647 125.888a3.173 3.173 0 0 1-4.618 1.649 3.174 3.174 0 0 1-.713-4.852 3.177 3.177 0 0 1 3.42-.85 3.172 3.172 0 0 1 1.911 4.053Z"/><path fill="#263238" d="M88.578 124.74c-.189.063-1.246-3.115-1.813-7.161-.567-4.046-.994-7.294-.819-7.329.175-.035.945 3.199 1.505 7.224.56 4.025 1.309 7.21 1.127 7.266Z"/><path fill="#263238" d="M92.631 108.934c.147.112-1.05 1.442-3.115 1.911-2.065.469-3.724-.175-3.64-.343.084-.168 1.624.112 3.5-.336s3.13-1.393 3.255-1.232ZM92.918 112.21c.16.098-.973 1.477-3.024 1.792-2.051.315-3.55-.616-3.43-.756.119-.14 1.526.371 3.318.063s3.003-1.253 3.136-1.099ZM59.36 81.9a5.677 5.677 0 1 1 2.291-5.876A5.669 5.669 0 0 1 59.36 81.9Z"/><path fill="#263238" d="M60.444 80.122c-.525-.168 1.106-5.978 4.494-12.488s6.3-11.557 6.755-11.368c.455.189-1.624 5.817-4.998 12.257-3.374 6.44-5.74 11.767-6.25 11.599Z"/><path fill="#263238" d="M86.1 67.69c0 .455-4.76.399-9.563-2.758a13.258 13.258 0 0 1-4.865-5.348c-.805-1.743-.609-3.01-.37-3.01.237 0 .594.987 1.581 2.324a18.124 18.124 0 0 0 4.746 4.396c4.326 2.849 8.631 3.787 8.47 4.396ZM73.794 93.296a5.684 5.684 0 1 1-6.52-9.313 5.684 5.684 0 0 1 6.52 9.313Z"/><path fill="#263238" d="M74.9 91.539c-.526-.168 1.105-5.978 4.493-12.488 3.388-6.51 6.3-11.557 6.755-11.361.455.196-1.624 5.817-4.998 12.257-3.374 6.44-5.76 11.753-6.25 11.592Z"/><path fill="#263238" d="M84.504 71.211c.042.511-4.494.749-9.1-2.044S68.852 62.3 69.3 62.083c.483-.315 2.926 2.933 7.098 5.39s8.162 3.157 8.106 3.738Z"/><path fill="#E0E0E0" d="M144.564 103.46a1.576 1.576 0 0 1-2.364-1.7 1.57 1.57 0 0 1 .461-.791 1.572 1.572 0 0 1 2.414.328 1.561 1.561 0 0 1 .194 1.188 1.57 1.57 0 0 1-.705.975Z"/><path fill="#E0E0E0" d="M144.9 102.991c-.147-.049.392-1.631 1.4-3.381 1.008-1.75 1.904-3.108 2.03-3.052.126.056-.532 1.589-1.561 3.318s-1.736 3.171-1.869 3.115Z"/><path fill="#E0E0E0" d="M152.173 99.925c0 .126-1.323.042-2.611-.896a3.715 3.715 0 0 1-1.267-1.554c-.196-.49-.126-.84-.056-.833.07.007.147.28.406.665.335.498.757.932 1.246 1.281 1.148.847 2.324 1.169 2.282 1.337ZM148.4 106.827a1.576 1.576 0 1 1 .726-1.589 1.567 1.567 0 0 1-.726 1.589Z"/><path fill="#E0E0E0" d="M148.714 106.358c-.14-.056.392-1.638 1.4-3.388s1.904-3.108 2.037-3.045c.133.063-.539 1.582-1.561 3.318-1.022 1.736-1.736 3.157-1.876 3.115Z"/><path fill="#E0E0E0" d="M151.668 100.877c0 .14-1.253.14-2.485-.7s-1.715-1.995-1.582-2.044c.133-.049.77.854 1.883 1.596 1.113.742 2.205.987 2.184 1.148Z"/><path fill="#263238" d="M130.01 136.346a3.178 3.178 0 1 1-6.226-1.292 3.178 3.178 0 0 1 6.226 1.292Z"/><path fill="#263238" d="M129.773 135.212c-.28.133-1.862-2.849-3.003-6.79s-1.918-7.112-1.652-7.217c.266-.105 1.589 2.982 2.709 6.895 1.12 3.913 2.219 7 1.946 7.112Z"/><path fill="#263238" d="M135.373 120.26c.175.189-1.771 2.002-4.9 2.576a7.467 7.467 0 0 1-4.039-.287c-1.001-.399-1.4-.987-1.309-1.078.091-.091.623.175 1.54.329 1.199.2 2.425.183 3.619-.049 2.807-.504 4.907-1.792 5.089-1.491ZM140.266 135.394a3.179 3.179 0 1 1-6.227-1.282 3.179 3.179 0 0 1 6.227 1.282Z"/><path fill="#263238" d="M139.999 134.267c-.28.133-1.862-2.849-3.003-6.797-1.141-3.948-1.897-7.07-1.624-7.21.273-.14 1.589 2.982 2.709 6.895 1.12 3.913 2.219 6.979 1.918 7.112Z"/><path fill="#263238" d="M136.079 122.311c.21.196-1.533 2.044-4.48 2.688-2.947.644-5.306-.252-5.194-.518.112-.266 2.31.056 4.956-.56 2.646-.616 4.515-1.862 4.718-1.61Z"/></svg>