<svg width="18" height="20" viewBox="0 0 18 20" fill="none" xmlns="http://www.w3.org/2000/svg">
<path d="M17.1902 12.06L16.0602 10.18C15.8102 9.77005 15.5902 8.98005 15.5902 8.50005V6.63005C15.5902 3.00005 12.6402 0.0500488 9.0202 0.0500488C5.3902 0.0600488 2.4402 3.00005 2.4402 6.63005V8.49005C2.4402 8.97005 2.2202 9.76005 1.9802 10.17L0.850203 12.05C0.420203 12.78 0.320203 13.61 0.590203 14.33C0.860203 15.06 1.4702 15.64 2.2702 15.9C3.3502 16.26 4.4402 16.52 5.5502 16.71C5.6602 16.73 5.7702 16.74 5.8802 16.76L6.3202 16.82C6.5802 16.8601 6.8402 16.89 7.1102 16.91C8.37074 17.0289 9.63966 17.0289 10.9002 16.91C11.1302 16.89 11.3602 16.8701 11.5802 16.84C11.7602 16.82 11.9402 16.8001 12.1202 16.7701C12.2302 16.76 12.3402 16.74 12.4502 16.72C13.5702 16.54 14.6802 16.26 15.7602 15.9C16.1338 15.7751 16.4749 15.5685 16.7586 15.2952C17.0423 15.0219 17.2615 14.6887 17.4002 14.32C17.6802 13.57 17.6002 12.75 17.1902 12.06ZM9.7502 8.00005C9.7502 8.20161 9.67013 8.39492 9.5276 8.53745C9.38508 8.67998 9.19177 8.76005 8.9902 8.76005C8.78864 8.76005 8.59533 8.67998 8.4528 8.53745C8.31027 8.39492 8.2302 8.20161 8.2302 8.00005V4.90005C8.2302 4.69848 8.31027 4.50518 8.4528 4.36265C8.59533 4.22012 8.78864 4.14005 8.9902 4.14005C9.19177 4.14005 9.38508 4.22012 9.5276 4.36265C9.67013 4.50518 9.7502 4.69848 9.7502 4.90005V8.00005ZM11.8302 18.01C11.6199 18.5922 11.2355 19.0955 10.7292 19.4515C10.2228 19.8076 9.61917 19.9991 9.0002 20C8.2102 20 7.4302 19.68 6.8802 19.1101C6.5602 18.8101 6.3202 18.41 6.1802 18C6.3102 18.0201 6.4402 18.03 6.5802 18.05C6.8102 18.08 7.0502 18.11 7.2902 18.13C7.8602 18.18 8.4402 18.21 9.0202 18.21C9.5902 18.21 10.1602 18.18 10.7202 18.13C10.9302 18.11 11.1402 18.1 11.3402 18.07L11.8302 18.01Z" fill="white"/>
</svg>
