<svg width="17" height="18" viewBox="0 0 17 18" fill="none" xmlns="http://www.w3.org/2000/svg">
<path d="M11.367 1.51282e-07C10.5262 -0.000201285 9.69702 0.205354 8.94596 0.600193C8.19489 0.995033 7.5428 1.56818 7.04194 2.2737C6.54108 2.97922 6.20537 3.7975 6.06173 4.66296C5.91808 5.52842 5.97049 6.41701 6.21475 7.2575L0 13.75V17.5H3.58957L9.80432 11.0075C10.5449 11.2423 11.3253 11.3076 12.0922 11.1989C12.8591 11.0902 13.5946 10.81 14.2485 10.3775C14.9024 9.94501 15.4594 9.3703 15.8815 8.69256C16.3035 8.01483 16.5808 7.25 16.6943 6.45021C16.8079 5.65041 16.755 4.83444 16.5394 4.0579C16.3238 3.28137 15.9505 2.56252 15.4449 1.95035C14.9392 1.33818 14.3133 0.847076 13.6095 0.510507C12.9058 0.173937 12.1409 -0.000187359 11.367 1.51282e-07ZM11.367 10C10.9551 9.99976 10.5455 9.93616 10.1513 9.81125L9.4651 9.59375L8.95837 10.1231L7.0553 12.1112L6.2303 11.25L5.38436 12.1337L6.20936 12.9956L5.26052 13.9869L4.43551 13.125L3.58957 14.0087L4.41457 14.8706L3.09421 16.25H1.19652V14.2675L7.06069 8.14125L7.56801 7.61188L7.35982 6.895C7.10411 6.01437 7.12072 5.07193 7.40729 4.20173C7.69386 3.33153 8.23579 2.57789 8.956 2.04802C9.67621 1.51814 10.538 1.23901 11.4188 1.25033C12.2997 1.26165 13.1546 1.56285 13.8622 2.11107C14.5697 2.6593 15.0937 3.42664 15.3597 4.30394C15.6257 5.18124 15.6201 6.12382 15.3437 6.99761C15.0673 7.87141 14.5343 8.63191 13.8203 9.17094C13.1063 9.70997 12.2479 10.0001 11.367 10Z" fill="#FEFEFE"/>
<path d="M11.0496 5.5C11.7104 5.5 12.2461 4.94036 12.2461 4.25C12.2461 3.55964 11.7104 3 11.0496 3C10.3887 3 9.85303 3.55964 9.85303 4.25C9.85303 4.94036 10.3887 5.5 11.0496 5.5Z" fill="#FEFEFE"/>
</svg>
