<svg width="22" height="20" viewBox="0 0 22 20" fill="none" xmlns="http://www.w3.org/2000/svg">
<path d="M20.9487 3.98576C20.6295 3.21592 20.1693 2.5183 19.5938 1.93195C19.0179 1.34385 18.3388 0.8765 17.5936 0.555305C16.8208 0.220924 15.992 0.049769 15.1552 0.0517752C13.9813 0.0517752 12.8359 0.386635 11.8405 1.01915C11.6024 1.17045 11.3762 1.33664 11.1619 1.51772C10.9476 1.33664 10.7214 1.17045 10.4832 1.01915C9.48789 0.386635 8.34252 0.0517752 7.16858 0.0517752C6.32324 0.0517752 5.5041 0.220445 4.7302 0.555305C3.9825 0.877763 3.30861 1.34161 2.72997 1.93195C2.15371 2.51764 1.69337 3.21542 1.37506 3.98576C1.04407 4.78694 0.875 5.63773 0.875 6.51333C0.875 7.33932 1.03692 8.20003 1.35839 9.07563C1.62747 9.80736 2.01323 10.5664 2.50614 11.3328C3.28718 12.5458 4.36111 13.8108 5.6946 15.0932C7.90438 17.2189 10.0927 18.6873 10.1856 18.7469L10.7499 19.1239C11 19.2901 11.3214 19.2901 11.5715 19.1239L12.1358 18.7469C12.2287 18.6849 14.4146 17.2189 16.6268 15.0932C17.9603 13.8108 19.0342 12.5458 19.8153 11.3328C20.3082 10.5664 20.6963 9.80736 20.963 9.07563C21.2845 8.20003 21.4464 7.33932 21.4464 6.51333C21.4488 5.63773 21.2797 4.78694 20.9487 3.98576ZM11.1619 17.1619C11.1619 17.1619 2.68473 11.504 2.68473 6.51333C2.68473 3.98576 4.6921 1.93691 7.16858 1.93691C8.90925 1.93691 10.419 2.94893 11.1619 4.42728C11.9048 2.94893 13.4145 1.93691 15.1552 1.93691C17.6317 1.93691 19.6391 3.98576 19.6391 6.51333C19.6391 11.504 11.1619 17.1619 11.1619 17.1619Z" fill="#F8F8F8"/>
</svg>
