<svg width="24" height="28" viewBox="0 0 24 28" fill="none" xmlns="http://www.w3.org/2000/svg">
<path d="M0.000151624 23.6405V26.6195C0.000151624 26.8073 0.0748977 26.9874 0.207574 27.1201C0.340483 27.2528 0.520338 27.3275 0.708134 27.3275H9.85816C10.2492 27.3275 10.5662 27.0106 10.5662 26.6195C10.5662 26.2285 10.2492 25.9115 9.85816 25.9115H1.41612V23.646C1.41589 23.0217 1.59832 22.4109 1.94097 21.889C2.28364 21.3672 2.7716 20.9571 3.34457 20.7094L9.87194 17.8776C10.1291 17.7666 10.2968 17.5148 10.2996 17.2347V14.9438C10.2994 14.6939 10.219 14.4507 10.0702 14.2501C9.48957 13.4083 9.1275 12.435 9.01681 11.4182C8.99346 11.2173 8.88531 11.0358 8.71946 10.9197C8.08275 10.4764 7.70221 9.75016 7.70012 8.97425C7.69848 8.83316 7.75594 8.69746 7.85871 8.60052C7.96219 8.50195 8.10094 8.44893 8.24365 8.45337C8.43495 8.46084 8.62112 8.391 8.75963 8.25903C8.89838 8.12729 8.97779 7.9451 8.98013 7.7538L9.00279 5.59318C9.00162 5.1085 9.09178 4.62825 9.26883 4.1772C9.80419 2.83203 11.169 1.41605 12.8935 1.41605H13.3438V2.19478C13.3436 2.55869 13.619 2.86354 13.981 2.89995C15.0693 3.06089 16.0396 3.6724 16.6543 4.58501C16.9237 4.96061 17.0682 5.41116 17.0678 5.87344V7.7367C17.0678 7.92449 17.1423 8.10458 17.275 8.23726C17.4079 8.37017 17.588 8.44468 17.7758 8.44468C17.915 8.44585 18.0483 8.50167 18.1467 8.60048C18.2448 8.69765 18.299 8.83056 18.2966 8.9686C18.2938 9.72867 17.929 10.4418 17.3139 10.8886C17.1549 11.0061 17.0523 11.1848 17.0308 11.3812C16.9227 12.4309 16.5452 13.4346 15.9349 14.2953C15.7004 14.6081 15.7637 15.0519 16.0764 15.2864C16.3894 15.5209 16.833 15.4576 17.0678 15.1448C17.7745 14.1641 18.2312 13.0258 18.3987 11.8287C19.2317 11.1091 19.7119 10.0638 19.7154 8.96292C19.717 8.44952 19.5131 7.95691 19.1492 7.59508C18.9595 7.40565 18.733 7.25709 18.4837 7.15899V5.87056C18.4865 5.10863 18.2464 4.3656 17.7984 3.7494C17.0657 2.70273 15.9912 1.94361 14.7598 1.60283V0.707983C14.7598 0.520186 14.6853 0.34033 14.5524 0.207421C14.4197 0.0747451 14.2396 0 14.0518 0H12.8935C10.5148 0 8.66549 1.88311 7.95188 3.63053H7.95212C7.70826 4.24715 7.58329 4.90449 7.584 5.56763L7.56695 7.14219V7.14196C7.30884 7.23539 7.07339 7.38207 6.876 7.57244C6.49597 7.93612 6.28177 8.43973 6.28411 8.96576C6.28575 10.0909 6.78677 11.1572 7.65195 11.8769C7.81266 13.0079 8.23427 14.0861 8.88364 15.026V16.7676L2.78382 19.404C1.95695 19.7611 1.25249 20.3528 0.757978 21.1056C0.263259 21.8584 -0.000239023 22.7395 1.62692e-07 23.6404L0.000151624 23.6405Z" fill="#F8F8F8"/>
<path d="M23.9993 16.4649C23.9995 16.2437 23.896 16.0349 23.7199 15.9011C23.5438 15.767 23.3149 15.7233 23.1016 15.7827L17.0018 17.4817C16.6953 17.567 16.4832 17.8461 16.4835 18.1642V23.2217C16.1291 23.0554 15.7423 22.9694 15.3509 22.9696C14.7235 23.0082 14.1365 23.2913 13.7153 23.7578C13.2942 24.2242 13.073 24.8374 13.0987 25.4652C13.1244 26.0931 13.3953 26.6859 13.8534 27.1164C14.3112 27.5469 14.9197 27.7807 15.548 27.7676C16.1764 27.7546 16.7746 27.4958 17.2141 27.0466C17.6537 26.5974 17.8997 25.994 17.8994 25.3655V25.3059V25.2749V18.6907L22.5834 17.3937V21.5224C22.2288 21.3561 21.8421 21.2701 21.4506 21.2704C20.8234 21.3089 20.2362 21.5918 19.815 22.0585C19.3941 22.525 19.1727 23.1381 19.1984 23.766C19.2243 24.3938 19.4953 24.9867 19.9531 25.4171C20.4111 25.8474 21.0194 26.0812 21.6477 26.0681C22.2761 26.0553 22.8743 25.7963 23.3138 25.3473C23.7534 24.8981 23.9996 24.2946 23.9991 23.6662V23.6067V23.5756L23.9993 16.4649ZM15.3509 26.3367C15.0986 26.3003 14.8702 26.1681 14.713 25.9679C14.5556 25.7675 14.4815 25.5143 14.5058 25.2606C14.5304 25.0072 14.6513 24.7727 14.844 24.6061C15.0368 24.4394 15.2862 24.3534 15.5406 24.3656C15.7949 24.3779 16.0348 24.488 16.2105 24.6725C16.3861 24.857 16.484 25.102 16.4835 25.3569C16.4618 25.6365 16.3307 25.896 16.1187 26.0796C15.9066 26.2629 15.6307 26.3554 15.3509 26.3367L15.3509 26.3367ZM21.4478 24.6377V24.6374C21.1957 24.6012 20.9673 24.469 20.8098 24.2686C20.6524 24.0684 20.5784 23.8152 20.6027 23.5616C20.6272 23.3079 20.7482 23.0736 20.9409 22.9069C21.1336 22.7403 21.383 22.6541 21.6374 22.6665C21.892 22.6789 22.1319 22.7889 22.3073 22.9734C22.4829 23.158 22.5808 23.403 22.5806 23.6578C22.5586 23.9367 22.428 24.196 22.2164 24.3793C22.005 24.5627 21.7299 24.6554 21.4505 24.6374L21.4478 24.6377Z" fill="#F8F8F8"/>
</svg>
