<svg width="24" height="24" viewBox="0 0 24 24" fill="none" xmlns="http://www.w3.org/2000/svg">
<path d="M10.8004 15.6H13.2004V4.8H15.6004L12.0004 0L8.40039 4.8H10.8004V15.6ZM20.4004 8.4H16.8004V10.8H19.2004V21.6H4.80039V10.8H7.20039V8.4H3.60039C3.28213 8.4 2.97691 8.52643 2.75186 8.75147C2.52682 8.97652 2.40039 9.28174 2.40039 9.6V22.8C2.40039 23.1183 2.52682 23.4235 2.75186 23.6485C2.97691 23.8736 3.28213 24 3.60039 24H20.4004C20.7187 24 21.0239 23.8736 21.2489 23.6485C21.474 23.4235 21.6004 23.1183 21.6004 22.8V9.6C21.6004 9.28174 21.474 8.97652 21.2489 8.75147C21.0239 8.52643 20.7187 8.4 20.4004 8.4Z" fill="#F8F8F8"/>
</svg>
