<svg width="22" height="22" viewBox="0 0 22 22" fill="none" xmlns="http://www.w3.org/2000/svg">
<path d="M21.5 3.5H18.5V0.5H17V3.5H14V5H17V8H18.5V5H21.5V3.5ZM17 10.25V15.917C16.546 15.6469 16.0282 15.503 15.5 15.5C14.9067 15.5 14.3266 15.6759 13.8333 16.0056C13.3399 16.3352 12.9554 16.8038 12.7284 17.3519C12.5013 17.9001 12.4419 18.5033 12.5576 19.0853C12.6734 19.6672 12.9591 20.2018 13.3787 20.6213C13.7982 21.0409 14.3328 21.3266 14.9147 21.4424C15.4967 21.5581 16.0999 21.4987 16.6481 21.2716C17.1962 21.0446 17.6648 20.6601 17.9944 20.1667C18.3241 19.6734 18.5 19.0933 18.5 18.5V10.25H17ZM15.5 20C15.2033 20 14.9133 19.912 14.6666 19.7472C14.42 19.5824 14.2277 19.3481 14.1142 19.074C14.0007 18.7999 13.9709 18.4983 14.0288 18.2074C14.0867 17.9164 14.2296 17.6491 14.4393 17.4393C14.6491 17.2296 14.9164 17.0867 15.2074 17.0288C15.4983 16.9709 15.7999 17.0006 16.074 17.1142C16.3481 17.2277 16.5824 17.42 16.7472 17.6666C16.912 17.9133 17 18.2033 17 18.5C16.9994 18.8976 16.8412 19.2788 16.56 19.56C16.2788 19.8412 15.8976 19.9994 15.5 20ZM11.75 3.5H6.5C6.1023 3.5004 5.721 3.65856 5.43978 3.93978C5.15856 4.221 5.0004 4.6023 5 5V15.917C4.54603 15.647 4.02821 15.503 3.5 15.5C2.90666 15.5 2.32664 15.6759 1.83329 16.0056C1.33994 16.3352 0.955426 16.8038 0.728363 17.3519C0.5013 17.9001 0.44189 18.5033 0.557646 19.0853C0.673401 19.6672 0.959123 20.2018 1.37868 20.6213C1.79824 21.0409 2.33279 21.3266 2.91473 21.4424C3.49667 21.5581 4.09987 21.4987 4.64805 21.2716C5.19623 21.0446 5.66477 20.6601 5.99441 20.1667C6.32405 19.6734 6.5 19.0933 6.5 18.5V5H11.75V3.5ZM3.5 20C3.20333 20 2.91332 19.912 2.66665 19.7472C2.41997 19.5824 2.22771 19.3481 2.11418 19.074C2.00065 18.7999 1.97095 18.4983 2.02882 18.2074C2.0867 17.9164 2.22956 17.6491 2.43934 17.4393C2.64912 17.2296 2.91639 17.0867 3.20737 17.0288C3.49834 16.9709 3.79994 17.0006 4.07403 17.1142C4.34812 17.2277 4.58238 17.42 4.74721 17.6666C4.91203 17.9133 5 18.2033 5 18.5C4.9996 18.8977 4.84144 19.279 4.56022 19.5602C4.279 19.8414 3.8977 19.9996 3.5 20Z" fill="#F8F8F8"/>
</svg>
