<svg width="24" height="22" viewBox="0 0 24 22" fill="none" xmlns="http://www.w3.org/2000/svg">
<path d="M7.80334 10.4197H4.7551V7.37167C4.7551 7.24214 4.70381 7.11823 4.6123 7.02672C4.52078 6.9352 4.39688 6.88391 4.26755 6.88391H4.02357C3.75424 6.88391 3.536 7.10215 3.536 7.37167V10.4199L0.487763 10.4197C0.218437 10.4197 0 10.6382 0 10.9075V11.1513C0 11.2806 0.051491 11.4047 0.142806 11.4962C0.234322 11.5875 0.358426 11.639 0.487757 11.639H3.536V14.6873C3.536 14.8166 3.58729 14.9405 3.6788 15.032C3.77012 15.1235 3.89422 15.1748 4.02356 15.1748H4.26754C4.39687 15.1748 4.52077 15.1235 4.61229 15.032C4.7038 14.9405 4.75509 14.8166 4.75509 14.6873V11.639H7.80334C7.93267 11.639 8.05677 11.5875 8.14808 11.4962C8.2396 11.4047 8.29109 11.2806 8.29109 11.1513V10.9075C8.29109 10.7781 8.2396 10.654 8.14808 10.5625C8.05677 10.4712 7.93267 10.4197 7.80334 10.4197L7.80334 10.4197Z" fill="white"/>
<path d="M23.5132 21.7422H23.0254C22.7561 21.7422 22.5377 21.524 22.5377 21.2546V20.4012C22.5377 17.4384 20.8672 15.0363 17.9045 15.0363L12.5787 15.0361C9.61594 15.0361 7.9455 17.4381 7.9455 20.401V21.2546C7.9455 21.384 7.89421 21.5079 7.8027 21.5994C7.71118 21.6909 7.58708 21.7422 7.45775 21.7422H6.96998H6.97018C6.70066 21.7422 6.48242 21.524 6.48242 21.2546V20.4012C6.48242 16.6313 8.8088 13.5734 12.5785 13.5734L17.9043 13.5732C21.6742 13.5732 24.0003 16.6312 24.0003 20.401V21.2546C24.0003 21.384 23.949 21.5079 23.8575 21.5994C23.766 21.6909 23.6421 21.7422 23.5128 21.7422H23.5132Z" fill="white"/>
<path d="M15.3021 0C13.7389 0 12.2396 0.620935 11.1343 1.72656C10.0289 2.83203 9.408 4.3313 9.4082 5.89474C9.4084 7.45797 10.0297 8.95709 11.1354 10.0624C12.2411 11.1676 13.7405 11.7883 15.3038 11.7877C16.8672 11.7873 18.3663 11.1658 19.4714 10.0601C20.5764 8.95426 21.1968 7.45477 21.1961 5.89134C21.1955 4.32868 20.5742 2.83023 19.469 1.72537C18.3637 0.620523 16.865 0 15.3022 0H15.3021ZM15.3021 10.566C14.0623 10.566 12.8734 10.0735 11.9966 9.19668C11.1201 8.32014 10.6275 7.131 10.6275 5.89119C10.6275 4.65158 11.1201 3.46244 11.9966 2.5859C12.8734 1.70915 14.0623 1.21654 15.3021 1.21654C16.5419 1.21654 17.7311 1.70912 18.6076 2.5859C19.4844 3.46244 19.9768 4.65158 19.9768 5.89119C19.9756 7.13058 19.4826 8.3189 18.6062 9.19529C17.7298 10.0717 16.5415 10.5646 15.3021 10.566Z" fill="white"/>
</svg>
