<svg width="20" height="21" viewBox="0 0 20 21" fill="none" xmlns="http://www.w3.org/2000/svg">
<path d="M16.6665 1.71796H6.6665C5.74984 1.71796 4.99984 2.49103 4.99984 3.43591V13.7436C4.99984 14.6885 5.74984 15.4615 6.6665 15.4615H16.6665C17.5832 15.4615 18.3332 14.6885 18.3332 13.7436V3.43591C18.3332 2.49103 17.5832 1.71796 16.6665 1.71796ZM16.6665 13.7436H6.6665V3.43591H16.6665V13.7436ZM10.4165 12.8846C10.969 12.8846 11.4989 12.6584 11.8896 12.2557C12.2803 11.8529 12.4998 11.3067 12.4998 10.7372V6.01283H14.9998V4.29488H11.6665V9.02783C11.3165 8.75296 10.8915 8.58975 10.4165 8.58975C9.86397 8.58975 9.33407 8.816 8.94336 9.21872C8.55266 9.62144 8.33317 10.1677 8.33317 10.7372C8.33317 11.3067 8.55266 11.8529 8.94336 12.2557C9.33407 12.6584 9.86397 12.8846 10.4165 12.8846ZM3.33317 5.15385H1.6665V17.1795C1.6665 18.1244 2.4165 18.8974 3.33317 18.8974H14.9998V17.1795H3.33317V5.15385Z" fill="#F8F8F8"/>
</svg>
