<svg width="20" height="21" viewBox="0 0 20 21" fill="none" xmlns="http://www.w3.org/2000/svg">
<path d="M8.33317 15.4615C9.81232 15.4612 11.2488 14.9508 12.414 14.0116L16.0773 17.7876L17.2557 16.5731L13.5923 12.797C14.504 11.5959 14.9995 10.1148 14.9998 8.58975C14.9998 4.80082 12.009 1.71796 8.33317 1.71796C4.65734 1.71796 1.6665 4.80082 1.6665 8.58975C1.6665 12.3787 4.65734 15.4615 8.33317 15.4615ZM8.33317 3.43591C11.0907 3.43591 13.3332 5.74741 13.3332 8.58975C13.3332 11.4321 11.0907 13.7436 8.33317 13.7436C5.57567 13.7436 3.33317 11.4321 3.33317 8.58975C3.33317 5.74741 5.57567 3.43591 8.33317 3.43591Z" fill="#F8F8F8"/>
<path d="M9.51018 7.37513C9.82602 7.70154 10.0002 8.13274 10.0002 8.58972H11.6668C11.6676 8.13827 11.5815 7.69114 11.4136 7.27419C11.2457 6.85723 10.9992 6.47872 10.6885 6.16054C9.42685 4.86177 7.23935 4.86177 5.97852 6.16054L7.15518 7.37685C7.78852 6.72574 8.88018 6.72746 9.51018 7.37513Z" fill="#F8F8F8"/>
</svg>
