<svg width="22" height="20" viewBox="0 0 22 20" fill="none" xmlns="http://www.w3.org/2000/svg">
<path d="M21.7129 6.93157L16.2127 12.2435C15.633 12.8034 14.6667 12.3883 14.6667 11.5619V8.75087C9.1447 8.78876 6.81519 10.1225 8.37318 15.4443C8.5444 16.0292 7.88253 16.4821 7.41809 16.1213C5.92976 14.965 4.58333 12.7534 4.58333 10.5211C4.58333 4.89852 9.07496 3.78278 14.6667 3.75106V0.937977C14.6667 0.110868 15.6336 -0.30296 16.2127 0.256415L21.7129 5.56845C22.0956 5.93809 22.0959 6.56161 21.7129 6.93157ZM14.6667 14.8097V17.5H2.44444V5.00001H4.38915C4.45087 4.99997 4.51195 4.98717 4.56871 4.96238C4.62547 4.93759 4.67675 4.90132 4.71946 4.85575C5.29058 4.24763 5.95073 3.7663 6.66791 3.38403C7.09301 3.15743 6.9355 2.50001 6.45612 2.50001H1.83333C0.820799 2.50001 0 3.33946 0 4.37501V18.125C0 19.1606 0.820799 20 1.83333 20H15.2778C16.2903 20 17.1111 19.1606 17.1111 18.125V14.656C17.1111 14.3323 16.798 14.1066 16.4996 14.2145C16.0811 14.3659 15.6331 14.4112 15.1937 14.3465C14.9161 14.3056 14.6667 14.5228 14.6667 14.8097Z" fill="#FEFEFE"/>
</svg>
