<svg width="32" height="32" viewBox="0 0 32 32" fill="none" xmlns="http://www.w3.org/2000/svg">
<path d="M19.819 19.0133C18.8428 19.0133 17.9724 19.4832 17.4155 20.2093L12.753 17.5788C12.8622 17.262 12.9221 16.9203 12.9221 16.5679C12.9221 16.2119 12.8622 15.8738 12.7494 15.5534L17.4085 12.9264C17.9618 13.6561 18.8358 14.1296 19.8155 14.1296C21.486 14.1296 22.8499 12.7556 22.8499 11.0648C22.8499 9.37399 21.4895 8 19.8155 8C18.1415 8 16.7812 9.37399 16.7812 11.0648C16.7812 11.4207 16.8411 11.7625 16.9538 12.0793L12.2983 14.7062C11.745 13.9729 10.871 13.5031 9.89129 13.5031C8.22081 13.5031 6.85693 14.8771 6.85693 16.5679C6.85693 18.2587 8.22081 19.6327 9.89482 19.6327C10.8746 19.6327 11.7486 19.1592 12.3054 18.426L16.9644 21.0565C16.8516 21.3768 16.7882 21.7221 16.7882 22.0781C16.7882 23.7653 18.1486 25.1429 19.8226 25.1429C21.4966 25.1429 22.8569 23.7689 22.8569 22.0781C22.8569 20.3873 21.4931 19.0133 19.819 19.0133ZM19.819 8.96464C20.9679 8.96464 21.9019 9.90793 21.9019 11.0683C21.9019 12.2288 20.9679 13.172 19.819 13.172C18.6701 13.172 17.7362 12.2288 17.7362 11.0683C17.7362 9.90793 18.6737 8.96464 19.819 8.96464ZM9.89482 18.6716C8.74592 18.6716 7.812 17.7283 7.812 16.5679C7.812 15.4075 8.74592 14.4642 9.89482 14.4642C11.0437 14.4642 11.9776 15.4075 11.9776 16.5679C11.9776 17.7283 11.0402 18.6716 9.89482 18.6716ZM19.819 24.1782C18.6701 24.1782 17.7362 23.2349 17.7362 22.0745C17.7362 20.9141 18.6701 19.9708 19.819 19.9708C20.9679 19.9708 21.9019 20.9141 21.9019 22.0745C21.9019 23.2349 20.9679 24.1782 19.819 24.1782Z" fill="white"/>
<g filter="url(#filter0_b_1209_3281)">
<circle cx="16" cy="16" r="15.5" stroke="url(#paint0_linear_1209_3281)"/>
</g>
<defs>
<filter id="filter0_b_1209_3281" x="-8" y="-8" width="48" height="48" filterUnits="userSpaceOnUse" color-interpolation-filters="sRGB">
<feFlood flood-opacity="0" result="BackgroundImageFix"/>
<feGaussianBlur in="BackgroundImageFix" stdDeviation="4"/>
<feComposite in2="SourceAlpha" operator="in" result="effect1_backgroundBlur_1209_3281"/>
<feBlend mode="normal" in="SourceGraphic" in2="effect1_backgroundBlur_1209_3281" result="shape"/>
</filter>
<linearGradient id="paint0_linear_1209_3281" x1="8.96" y1="3.79181e-07" x2="27.52" y2="32" gradientUnits="userSpaceOnUse">
<stop stop-color="#F915DE"/>
<stop offset="0.328125" stop-color="#508DFA"/>
<stop offset="0.744792" stop-color="#CD8EF9"/>
<stop offset="1" stop-color="#1943F4"/>
</linearGradient>
</defs>
</svg>
