<svg width="18" height="18" viewBox="0 0 18 18" fill="none" xmlns="http://www.w3.org/2000/svg">
<path d="M3.37485 0.576904C3.25881 0.576968 3.14508 0.610329 3.04639 0.673251C2.94771 0.736172 2.86796 0.82617 2.8161 0.933164L0.316095 6.08701C0.262291 6.19782 0.240631 6.32227 0.253711 6.44545C0.266792 6.56863 0.314059 6.6853 0.389845 6.78149L8.51485 17.0892C8.57345 17.1635 8.64739 17.2234 8.73129 17.2646C8.81519 17.3057 8.90693 17.3271 8.99985 17.3271C9.09276 17.3271 9.1845 17.3057 9.2684 17.2646C9.3523 17.2234 9.42624 17.1635 9.48485 17.0892L17.6098 6.78149C17.6856 6.6853 17.7329 6.56863 17.746 6.44545C17.7591 6.32227 17.7374 6.19782 17.6836 6.08701L15.1836 0.933164C15.1317 0.82617 15.052 0.736172 14.9533 0.673251C14.8546 0.610329 14.7409 0.576968 14.6248 0.576904H3.37485ZM1.8861 5.73075L3.7611 1.86537H6.32422L5.38672 5.73075H1.8861ZM2.18797 7.01921H5.41547L7.43235 13.6728L2.18797 7.01921ZM6.72547 7.01921H11.2748L8.99985 14.5226L6.72485 7.01921H6.72547ZM12.5842 7.01921H15.8123L10.568 13.6728L12.5842 7.01921ZM16.1136 5.73075H12.613L11.6755 1.86537H14.2386L16.1136 5.73075ZM11.3242 5.73075H6.67547L7.61297 1.86537H10.3867L11.3242 5.73075Z" fill="#F8F8F8"/>
</svg>
