<svg width="18" height="17" viewBox="0 0 18 17" fill="none" xmlns="http://www.w3.org/2000/svg">
<path d="M3.12485 0C3.00881 6.19679e-05 2.89508 0.032427 2.79639 0.0934702C2.69771 0.154513 2.61796 0.241825 2.5661 0.345625L0.0660954 5.34563C0.0122908 5.45313 -0.00936935 5.57386 0.00371143 5.69337C0.0167922 5.81287 0.0640589 5.92606 0.139845 6.01938L8.26485 16.0194C8.32345 16.0915 8.39739 16.1496 8.48129 16.1895C8.56519 16.2295 8.65693 16.2502 8.74985 16.2502C8.84276 16.2502 8.9345 16.2295 9.0184 16.1895C9.1023 16.1496 9.17624 16.0915 9.23485 16.0194L17.3598 6.01938C17.4356 5.92606 17.4829 5.81287 17.496 5.69337C17.5091 5.57386 17.4874 5.45313 17.4336 5.34563L14.9336 0.345625C14.8817 0.241825 14.802 0.154513 14.7033 0.0934702C14.6046 0.032427 14.4909 6.19679e-05 14.3748 0H3.12485ZM1.6361 5L3.5111 1.25H6.07422L5.13672 5H1.6361ZM1.93797 6.25H5.16547L7.18235 12.705L1.93797 6.25ZM6.47547 6.25H11.0248L8.74985 13.5294L6.47485 6.25H6.47547ZM12.3342 6.25H15.5623L10.318 12.705L12.3342 6.25ZM15.8636 5H12.363L11.4255 1.25H13.9886L15.8636 5ZM11.0742 5H6.42547L7.36297 1.25H10.1367L11.0742 5Z" fill="#F8F8F8"/>
</svg>
