<svg width="24" height="24" viewBox="0 0 24 24" fill="none" xmlns="http://www.w3.org/2000/svg">
<path d="M19.4344 4.034C19.5674 4.242 19.3404 4.484 19.1004 4.43C18.6304 4.29 18.1104 4.22 17.5804 4.22H14.2804C14.2028 4.22 14.1262 4.20193 14.0568 4.16721C13.9874 4.1325 13.927 4.0821 13.8804 4.02L12.7304 2.49C12.5894 2.29 12.7224 2 12.9664 2H15.7204C17.2804 2 18.6564 2.81 19.4344 4.034Z" fill="black"/>
<path d="M20.14 6.54C19.7042 6.22554 19.2119 5.99805 18.69 5.87C18.33 5.77 17.96 5.72 17.58 5.72H13.86C13.28 5.72 13.24 5.67 12.93 5.26L11.53 3.4C10.88 2.53 10.37 2 8.74 2H6.42C3.98 2 2 3.98 2 6.42V17.58C2 20.02 3.98 22 6.42 22H17.58C20.02 22 22 20.02 22 17.58V10.14C22 8.65 21.27 7.34 20.14 6.54ZM14.39 16.34H9.6C9.21 16.34 8.91 16.03 8.91 15.64C8.91 15.26 9.21 14.94 9.6 14.94H14.39C14.78 14.94 15.09 15.26 15.09 15.64C15.09 16.03 14.78 16.34 14.39 16.34Z" fill="black"/>
</svg>
