<svg width="21" height="20" viewBox="0 0 21 20" fill="none" xmlns="http://www.w3.org/2000/svg">
<path d="M19.281 16.3216C18.8008 15.1989 18.1039 14.1792 17.2291 13.3191C16.357 12.4566 15.3239 11.7689 14.1869 11.294C14.1767 11.2889 14.1665 11.2864 14.1564 11.2814C15.7424 10.1508 16.7734 8.30904 16.7734 6.23116C16.7734 2.78894 13.9476 0 10.4599 0C6.97217 0 4.14636 2.78894 4.14636 6.23116C4.14636 8.30904 5.1774 10.1508 6.76342 11.2839C6.75323 11.2889 6.74305 11.2915 6.73287 11.2965C5.59236 11.7714 4.56896 12.4523 3.69066 13.3216C2.81672 14.1823 2.11993 15.2019 1.63876 16.3241C1.16607 17.4227 0.911134 18.6006 0.887759 19.794C0.887079 19.8208 0.891845 19.8475 0.901776 19.8724C0.911706 19.8974 0.9266 19.9202 0.94558 19.9394C0.96456 19.9586 0.987241 19.9738 1.01229 19.9842C1.03734 19.9946 1.06424 20 1.09142 20H2.61889C2.7309 20 2.82001 19.9121 2.82255 19.804C2.87347 17.8643 3.66266 16.0477 5.05774 14.6709C6.5012 13.2462 8.41817 12.4623 10.4599 12.4623C12.5016 12.4623 14.4186 13.2462 15.862 14.6709C17.2571 16.0477 18.0463 17.8643 18.0972 19.804C18.0998 19.9146 18.1889 20 18.3009 20H19.8284C19.8555 20 19.8824 19.9946 19.9075 19.9842C19.9325 19.9738 19.9552 19.9586 19.9742 19.9394C19.9932 19.9202 20.0081 19.8974 20.018 19.8724C20.0279 19.8475 20.0327 19.8208 20.032 19.794C20.0066 18.593 19.7545 17.4246 19.281 16.3216ZM10.4599 10.5528C9.29138 10.5528 8.1916 10.103 7.36422 9.28643C6.53684 8.46985 6.08115 7.38442 6.08115 6.23116C6.08115 5.07789 6.53684 3.99246 7.36422 3.17588C8.1916 2.3593 9.29138 1.90955 10.4599 1.90955C11.6284 1.90955 12.7282 2.3593 13.5556 3.17588C14.3829 3.99246 14.8386 5.07789 14.8386 6.23116C14.8386 7.38442 14.3829 8.46985 13.5556 9.28643C12.7282 10.103 11.6284 10.5528 10.4599 10.5528Z" fill="#F8F8F8"/>
</svg>
