<svg width="10" height="10" viewBox="0 0 10 10" fill="none" xmlns="http://www.w3.org/2000/svg">
<path d="M7.64492 2.94141C7.47908 2.65452 7.20611 2.44523 6.88601 2.35953C6.56591 2.27383 6.22489 2.31873 5.93789 2.48438C5.84538 2.537 5.76004 2.60133 5.68398 2.67578L5.11757 1.69531C4.95173 1.40843 4.67876 1.19913 4.35867 1.11343C4.03857 1.02773 3.69754 1.07264 3.41054 1.23828C3.28057 1.31145 3.16533 1.40814 3.0707 1.52344C2.95511 1.44751 2.82867 1.38956 2.6957 1.35156C2.45693 1.28759 2.20456 1.29585 1.97049 1.37529C1.73641 1.45472 1.53115 1.60178 1.38064 1.79786C1.23013 1.99394 1.14113 2.23025 1.1249 2.4769C1.10867 2.72355 1.16593 2.96948 1.28945 3.18359L1.30898 3.21875C1.20637 3.24588 1.10784 3.28661 1.01601 3.33984C0.729128 3.50569 0.519834 3.77866 0.434133 4.09875C0.348432 4.41885 0.393338 4.75988 0.558981 5.04688L2.19961 7.89062C2.67617 8.71632 3.46121 9.31888 4.38205 9.56575C5.30288 9.81263 6.28407 9.68359 7.10976 9.20703C7.93546 8.73047 8.53802 7.94542 8.78489 7.02459C9.03176 6.10376 8.90273 5.12257 8.42617 4.29688L7.64492 2.94141ZM6.64101 8.39453C6.03059 8.74581 5.30577 8.84069 4.6255 8.65835C3.94522 8.47602 3.36502 8.03136 3.01211 7.42188L1.37148 4.57812C1.35112 4.54303 1.33788 4.50427 1.33252 4.46405C1.32716 4.42383 1.32978 4.38295 1.34023 4.34375C1.36217 4.26382 1.41389 4.19533 1.48476 4.15234C1.5569 4.11097 1.64243 4.09966 1.72284 4.12086C1.80325 4.14206 1.87209 4.19406 1.91445 4.26562L2.77382 5.75391L2.93007 6.02344C2.95803 6.08172 2.99774 6.13359 3.0467 6.17579C3.09567 6.21799 3.15283 6.24961 3.2146 6.26866C3.27637 6.2877 3.34141 6.29377 3.40564 6.28647C3.46987 6.27918 3.53189 6.25867 3.58782 6.22625C3.64374 6.19383 3.69235 6.1502 3.7306 6.09809C3.76885 6.04598 3.79591 5.98652 3.81008 5.92345C3.82424 5.86038 3.82521 5.79507 3.81292 5.73161C3.80064 5.66814 3.77535 5.60791 3.73867 5.55469L2.09804 2.71094C2.05886 2.63941 2.04772 2.55586 2.06679 2.47656C2.07775 2.43647 2.0965 2.39893 2.12197 2.36609C2.14744 2.33325 2.17913 2.30575 2.21523 2.28516C2.24998 2.26395 2.28877 2.25022 2.32913 2.24484C2.36948 2.23946 2.41051 2.24254 2.44961 2.25391C2.52954 2.27585 2.59803 2.32756 2.64101 2.39844L2.95351 2.94141L3.46132 3.82031L4.28164 5.24219C4.3438 5.34993 4.44621 5.42857 4.56635 5.4608C4.68649 5.49304 4.81452 5.47622 4.92226 5.41406C5.03001 5.3519 5.10864 5.24949 5.14088 5.12935C5.17311 5.00921 5.1563 4.88118 5.09414 4.77344L4.78164 4.23047L4.27382 3.35156L3.76601 2.47266C3.732 2.40173 3.72598 2.32059 3.74915 2.24543C3.77233 2.17026 3.823 2.1066 3.89105 2.06715C3.9591 2.02771 4.03952 2.01537 4.11627 2.03261C4.19301 2.04985 4.26043 2.09539 4.30507 2.16016L5.47695 4.1875L6.18007 5.40625C6.24223 5.51399 6.34465 5.59263 6.46479 5.62487C6.52428 5.64083 6.58633 5.64491 6.64739 5.63689C6.70846 5.62887 6.76735 5.6089 6.8207 5.57812C6.87405 5.54735 6.92081 5.50636 6.95832 5.45751C6.99583 5.40866 7.02335 5.3529 7.03931 5.29341C7.05527 5.23392 7.05936 5.17187 7.05134 5.11081C7.04332 5.04974 7.02335 4.99085 6.99257 4.9375L6.68007 4.39844L6.28945 3.72266C6.25027 3.65113 6.23913 3.56758 6.2582 3.48828C6.26916 3.44819 6.28791 3.41065 6.31338 3.37781C6.33885 3.34497 6.37054 3.31747 6.40664 3.29688C6.47818 3.25569 6.56311 3.24449 6.64289 3.26571C6.72266 3.28694 6.7908 3.33887 6.83242 3.41016L7.61367 4.76562C7.96495 5.37605 8.05982 6.10087 7.87749 6.78114C7.69516 7.46141 7.2505 8.04162 6.64101 8.39453ZM5.62539 1.09375V0.46875C5.62539 0.34443 5.67477 0.225201 5.76268 0.137294C5.85059 0.049386 5.96982 0 6.09414 0C6.21846 0 6.33769 0.049386 6.42559 0.137294C6.5135 0.225201 6.56289 0.34443 6.56289 0.46875V1.09375C6.56289 1.21807 6.5135 1.3373 6.42559 1.42521C6.33769 1.51311 6.21846 1.5625 6.09414 1.5625C5.96982 1.5625 5.85059 1.51311 5.76268 1.42521C5.67477 1.3373 5.62539 1.21807 5.62539 1.09375ZM7.25039 1.27734L7.56289 0.738281C7.62505 0.630537 7.72746 0.551899 7.8476 0.519666C7.96774 0.487433 8.09577 0.504246 8.20351 0.566406C8.31126 0.628566 8.38989 0.730982 8.42213 0.851122C8.45436 0.971263 8.43755 1.09929 8.37539 1.20703L8.06289 1.74609C8.03213 1.79947 7.99116 1.84626 7.94231 1.88379C7.89346 1.92132 7.8377 1.94885 7.7782 1.96481C7.7187 1.98078 7.65664 1.98485 7.59557 1.97682C7.53449 1.96878 7.4756 1.94878 7.42226 1.91797C7.36889 1.88722 7.3221 1.84624 7.28457 1.79739C7.24704 1.74854 7.21951 1.69278 7.20354 1.63328C7.18758 1.57378 7.1835 1.51172 7.19154 1.45065C7.19958 1.38958 7.21957 1.33068 7.25039 1.27734ZM9.57461 2.75L9.03554 3.0625C8.98219 3.09328 8.9233 3.11325 8.86224 3.12127C8.80117 3.12929 8.73912 3.1252 8.67963 3.10924C8.62015 3.09328 8.56438 3.06576 8.51553 3.02825C8.46668 2.99074 8.4257 2.94397 8.39492 2.89062C8.36414 2.83728 8.34417 2.77839 8.33615 2.71732C8.32813 2.65625 8.33222 2.5942 8.34818 2.53472C8.36414 2.47523 8.39166 2.41947 8.42917 2.37062C8.46668 2.32176 8.51344 2.28078 8.56679 2.25L9.10586 1.9375C9.2136 1.87534 9.34162 1.85853 9.46176 1.89076C9.58191 1.92299 9.68432 2.00163 9.74648 2.10938C9.80864 2.21712 9.82545 2.34514 9.79322 2.46528C9.76099 2.58542 9.68235 2.68784 9.57461 2.75Z" fill="#B6B6B6"/>
</svg>
