<svg width="59" height="26" viewBox="0 0 59 26" fill="none" xmlns="http://www.w3.org/2000/svg">
<path d="M56.7593 11.2681H59V14.7319H56.7593V11.2681V11.2681ZM52.3438 15.746H54.5845V10.254H52.3438V15.746V15.746ZM48.0024 18.5868H50.2431V7.41321H48.0024V18.5868V18.5868ZM43.8753 20.7788H46.1161V5.32341H43.8753V20.7751V20.7788ZM39.457 17.0045H41.6977V8.9955H39.457V17.0045ZM34.9687 23.0647H37.2094V2.59254H34.9616V23.0647H34.9687ZM30.5517 26H32.7925V0H30.5517V26ZM26.2104 21.986H28.4511V4.01387H26.2104V21.9861V21.986ZM21.7192 16.8823H23.9599V9.30693H21.7192V16.8823ZM17.3779 15.0764H19.6187V10.9169H17.3779V15.0833V15.0764ZM13.0366 17.3018H15.2773V8.69526H13.0366V17.3046V17.3018ZM8.76522 21.468H11.0059V4.03945H8.76535V21.4711L8.76522 21.468ZM4.42397 18.8054H6.66469V7.04489H4.42397V18.8084V18.8054ZM0 15.746H2.24072V10.254H0V15.746Z" fill="url(#paint0_linear_903_2839)"/>
<defs>
<linearGradient id="paint0_linear_903_2839" x1="3.66184e-07" y1="8.66667" x2="62.072" y2="13.1397" gradientUnits="userSpaceOnUse">
<stop stop-color="#59257F"/>
<stop offset="1" stop-color="#A4508C"/>
</linearGradient>
</defs>
</svg>
